<svg width="24" height="24" viewBox="0 0 24 24" fill="none" xmlns="http://www.w3.org/2000/svg">
<g id="Frame" clip-path="url(#clip0_1274_5782)">
<g id="Group">
<path id="Vector (Stroke)" fill-rule="evenodd" clip-rule="evenodd" d="M1.97208 0.137279C2.15514 0.320337 2.15514 0.617133 1.97208 0.800192L1.60041 1.17186H18.087L17.7153 0.800192C17.5323 0.617133 17.5323 0.320337 17.7153 0.137279C17.8984 -0.0457799 18.1952 -0.0457799 18.3783 0.137279L19.5501 1.30915C19.7332 1.49221 19.7332 1.789 19.5501 1.97206L18.3783 3.14393C18.1952 3.32699 17.8984 3.32699 17.7153 3.14393C17.5323 2.96087 17.5323 2.66408 17.7153 2.48102L18.087 2.10936H1.60041L1.97208 2.48102C2.15514 2.66408 2.15514 2.96087 1.97208 3.14393C1.78902 3.32699 1.49222 3.32699 1.30916 3.14393L0.137294 1.97206C-0.0457646 1.789 -0.0457646 1.49221 0.137294 1.30915L1.30916 0.137279C1.49222 -0.0457799 1.78902 -0.0457799 1.97208 0.137279ZM0 4.78131C0 4.52243 0.209867 4.31256 0.46875 4.31256H19.2187C19.4776 4.31256 19.6874 4.52243 19.6874 4.78131V23.5312C19.6874 23.7901 19.4776 24 19.2187 24H0.46875C0.209867 24 0 23.7901 0 23.5312V4.78131ZM18.7499 5.25006H0.937501V23.0625H18.7499V5.25006ZM22.0279 4.44986C22.211 4.2668 22.5078 4.2668 22.6908 4.44986L23.8627 5.62173C24.0458 5.80478 24.0458 6.10158 23.8627 6.28464C23.6797 6.4677 23.3829 6.4677 23.1998 6.28464L22.8281 5.91297V22.3996L23.1998 22.0279C23.3829 21.8449 23.6797 21.8449 23.8627 22.0279C24.0458 22.211 24.0458 22.5078 23.8627 22.6908L22.6908 23.8627C22.5078 24.0458 22.211 24.0458 22.0279 23.8627L20.8561 22.6908C20.673 22.5078 20.673 22.211 20.8561 22.0279C21.0391 21.8449 21.3359 21.8449 21.519 22.0279L21.8906 22.3996V5.91298L21.519 6.28464C21.3359 6.4677 21.0391 6.4677 20.8561 6.28464C20.673 6.10158 20.673 5.80478 20.8561 5.62173L22.0279 4.44986Z" fill="black" fill-opacity="0.85"/>
<path id="Vector (Stroke)_2" fill-rule="evenodd" clip-rule="evenodd" d="M2.8125 7.59381C2.8125 7.33493 3.02237 7.12506 3.28125 7.12506H16.4062C16.6651 7.12506 16.8749 7.33493 16.8749 7.59381V20.7188C16.8749 20.9776 16.6651 21.1875 16.4062 21.1875H3.28125C3.02237 21.1875 2.8125 20.9776 2.8125 20.7188V7.59381ZM4.41296 8.06256L5.40234 9.05194C5.5854 9.235 5.5854 9.5318 5.40234 9.71485C5.21928 9.89791 4.92249 9.89791 4.73943 9.71485L3.75 8.72543V19.5871L9.18081 14.1563L7.72249 12.698C7.53943 12.5149 7.53943 12.2181 7.72249 12.0351C7.90555 11.852 8.20235 11.852 8.38541 12.0351L9.84372 13.4934L15.2745 8.06256H4.41296ZM15.9374 8.72547V19.5871L10.5066 14.1563L15.9374 8.72547ZM9.84372 14.8192L4.41291 20.25H15.2745L9.84372 14.8192Z" fill="black" fill-opacity="0.85"/>
<path id="Vector (Stroke)_3" fill-rule="evenodd" clip-rule="evenodd" d="M6.09338 10.8751C6.09338 10.6162 6.30325 10.4063 6.56213 10.4063H6.5625C6.82138 10.4063 7.03125 10.6162 7.03125 10.8751C7.03125 11.1339 6.82138 11.3438 6.5625 11.3438H6.56213C6.30325 11.3438 6.09338 11.1339 6.09338 10.8751Z" fill="black" fill-opacity="0.85"/>
</g>
</g>
<defs>
<clipPath id="clip0_1274_5782">
<rect width="24" height="24" fill="white"/>
</clipPath>
</defs>
</svg>
