<svg width="201" height="200" viewBox="0 0 201 200" fill="none" xmlns="http://www.w3.org/2000/svg">
<g id="Frame" filter="url(#filter0_di_1468_4158)">
<path id="Union" fill-rule="evenodd" clip-rule="evenodd" d="M80.9289 51.3668C74.2432 51.3668 67.5575 52.9586 61.4024 56.2484C41.3452 67.0729 33.7044 92.2239 44.5289 112.387C45.8024 114.722 47.3942 117.057 49.3044 119.285L49.9412 120.028L20.7575 147.089C20.5452 147.301 20.333 147.62 20.2269 148.044C20.1208 148.363 20.2269 148.787 20.333 149.106C20.4391 149.424 20.6514 149.742 20.9697 149.955C21.2881 150.167 21.6065 150.273 21.9248 150.273H31.4759V188.159C31.4759 189.114 32.2187 189.963 33.2799 189.963H89.8432C90.7983 189.963 91.6473 189.22 91.6473 188.159V150.273H101.198C101.517 150.273 101.941 150.167 102.153 149.955C102.472 149.742 102.684 149.424 102.79 149.106C102.896 148.787 102.896 148.363 102.896 148.044C102.896 147.726 102.684 147.408 102.366 147.089L87.8269 133.612L89.8432 133.187C93.6636 132.338 97.2718 131.065 100.562 129.261C114.994 121.514 123.484 105.914 122.211 89.4647L122.104 88.7219L135.794 81.2933C136.113 81.0811 136.431 80.8688 136.537 80.5505L142.055 69.3015L148.529 73.4403C148.953 73.6525 149.378 73.7586 149.802 73.6525C150.227 73.5464 150.651 73.3341 150.864 73.0158L162.006 58.2647L167.949 62.828C168.268 63.0402 168.586 63.1464 168.904 63.1464C169.223 63.1464 169.541 63.1464 169.86 62.9341L185.672 54.4443C185.884 54.3382 186.096 54.126 186.202 53.9137L186.521 53.277L192.145 27.8076C192.251 27.3831 192.145 26.9586 191.933 26.5341C191.721 26.1096 191.296 25.8974 190.872 25.6851L179.411 22.1831C179.304 22.2892 179.092 22.2892 178.774 22.2892C178.562 22.2892 178.349 22.3954 178.137 22.5015L107.035 60.7056L106.504 60.2811C99.0759 54.4443 90.0555 51.3668 80.9289 51.3668ZM35.084 186.248V148.363C35.084 147.408 34.3412 146.559 33.2799 146.559H26.4881L52.8065 122.044L53.5493 122.999C55.884 125.971 58.6432 127.457 61.6146 127.457C62.5697 127.457 63.4187 126.714 63.4187 125.653C63.4187 124.591 62.6759 123.848 61.6146 123.848C59.7044 123.848 57.6881 122.575 56.0963 120.346L55.5657 119.604L61.7208 113.873L96.8473 146.452H90.0554C89.1003 146.452 88.2514 147.195 88.2514 148.257V186.248H88.1452H35.084ZM84.431 130.428L62.782 110.371C62.1452 109.734 61.084 109.734 60.3412 110.371L53.7616 116.526L53.231 114.934C52.382 112.175 51.9575 109.204 51.9575 106.02C51.9575 101.032 53.0187 96.3627 55.035 92.8607L55.7779 91.5872L56.733 92.6484C57.6881 93.7096 58.8554 94.4525 60.1289 95.0892C61.4024 95.6198 62.782 95.9382 64.2677 95.9382C65.9657 95.9382 67.6636 95.5137 69.1493 94.7709C70.3167 94.1341 71.3779 93.2852 72.2269 92.2239C73.0759 91.1627 73.7126 89.9954 74.1371 88.7219C74.8799 86.0688 74.6677 83.3096 73.3942 80.8688C70.7412 75.8811 64.4799 73.9709 59.4922 76.73C58.3248 77.3668 57.2636 78.2158 56.4146 79.277C55.5657 80.3382 54.9289 81.5056 54.5044 82.779C54.0799 84.2647 53.9738 85.8566 54.2922 87.5545L54.3983 88.0851L54.0799 88.5096C50.5779 92.5423 48.5616 99.0158 48.5616 106.126C48.5616 106.763 48.5616 107.399 48.6677 108.036L46.6514 108.567C38.4799 90.526 45.6963 68.9831 63.2065 59.6443C76.8963 52.3219 94.0881 54.2321 105.868 64.3137C106.186 64.526 106.504 64.7382 106.823 64.7382C107.141 64.7382 107.566 64.7382 107.884 64.526L179.411 26.1096L186.202 28.126L158.504 43.726C158.292 43.8321 158.08 44.0443 157.974 44.1505L157.655 44.7872C157.549 44.9994 157.549 45.2117 157.549 45.53C157.549 45.7423 157.655 45.9545 157.762 46.1668C157.868 46.379 158.08 46.5913 158.186 46.6974L158.823 47.0158C159.035 47.1219 159.247 47.1219 159.566 47.0158C159.778 47.0158 159.99 46.9096 160.202 46.8035L187.9 30.9913L183.337 51.7913L169.329 59.4321L162.855 54.4443L162.219 54.126C162.006 54.0198 161.794 54.0198 161.476 54.126C161.264 54.126 161.051 54.2321 160.839 54.3382C160.627 54.4443 160.415 54.6566 160.309 54.7627L149.06 69.6198L142.268 65.2688C142.055 65.1627 141.843 65.0566 141.525 65.0566H140.782L140.145 65.3749C139.933 65.4811 139.827 65.6933 139.721 65.9056L133.672 78.5341L119.345 86.1749C119.027 86.3872 118.815 86.5994 118.602 86.9178C118.39 87.2362 118.39 87.5545 118.39 87.979C120.406 103.473 112.447 118.755 98.7575 126.077C94.4065 128.412 89.7371 129.897 84.8554 130.322L84.431 130.428ZM64.2677 92.33C62.3575 92.33 60.4473 91.4811 59.1738 89.9954L58.2187 88.9341L59.4922 88.4035C60.1289 88.0852 60.8718 87.979 61.5085 87.979C63.2065 87.979 64.7983 88.828 66.284 90.526L67.4514 91.9056L65.8595 92.2239C65.3289 92.33 64.7983 92.33 64.2677 92.33ZM69.8922 89.0403L68.9371 87.979C66.8146 85.6443 64.2677 84.3709 61.6146 84.3709C60.8718 84.3709 60.1289 84.477 59.2799 84.6892L57.2636 85.2198L58.0065 83.3096C58.5371 81.7178 59.7044 80.4443 61.084 79.7015C62.0391 79.1709 63.1003 78.8525 64.2677 78.8525C65.435 78.8525 66.7085 79.1709 67.6636 79.8076C68.7248 80.4443 69.5738 81.2933 70.1044 82.3545C70.5289 83.0974 70.7412 83.9464 70.8473 84.9015C70.9534 85.7505 70.8473 86.5994 70.635 87.4484V87.5545L69.8922 89.0403ZM41.9183 152.979C41.9183 146.93 47.1183 142.048 53.4857 142.048C56.1387 142.048 58.5796 142.897 60.4898 144.383L60.8081 144.595L61.1265 144.383C63.1428 142.897 65.5836 142.048 68.2367 142.048C74.604 142.048 79.804 146.93 79.804 152.979C79.804 156.481 73.3306 165.501 62.5061 176.963C61.6571 177.918 60.0653 177.918 59.2163 176.963C48.3918 165.501 41.9183 156.587 41.9183 152.979ZM60.4898 171.657L60.9142 172.081L61.3387 171.657C66.751 165.714 75.0285 155.844 75.3469 152.979C75.3469 149.583 72.1632 146.718 68.3428 146.718C66.1143 146.718 64.0979 147.673 62.7183 149.371C61.7632 150.432 59.9591 150.432 59.1102 149.371C57.7306 147.673 55.7142 146.718 53.4857 146.718C49.5591 146.718 46.4816 149.477 46.4816 153.085C46.8 155.844 55.0775 165.714 60.4898 171.657Z" fill="white"/>
<path id="Rectangle 80 (Stroke)" fill-rule="evenodd" clip-rule="evenodd" d="M36.7348 18.3658C24.3365 18.3658 14.2858 28.4166 14.2858 40.8148V165.56C14.2858 169.23 16.7855 172.315 20.1751 173.208C21.2651 173.495 22.194 174.382 22.194 175.509C22.194 176.636 21.2731 177.568 20.162 177.378C14.508 176.413 10.2042 171.489 10.2042 165.56V40.8148C10.2042 26.1623 22.0823 14.2842 36.7348 14.2842H159.439C160.566 14.2842 161.48 15.1979 161.48 16.325C161.48 17.4521 160.566 18.3658 159.439 18.3658H36.7348ZM169.388 75.5087C169.388 74.3816 170.302 73.4679 171.429 73.4679C172.556 73.4679 173.469 74.3816 173.469 75.5087V151.019C173.469 165.671 161.591 177.549 146.939 177.549H103.827C102.7 177.549 101.786 176.636 101.786 175.509C101.786 174.382 102.7 173.468 103.827 173.468H146.939C159.337 173.468 169.388 163.417 169.388 151.019V75.5087Z" fill="white"/>
</g>
<defs>
<filter id="filter0_di_1468_4158" x="-8" y="-7" width="216" height="216" filterUnits="userSpaceOnUse" color-interpolation-filters="sRGB">
<feFlood flood-opacity="0" result="BackgroundImageFix"/>
<feColorMatrix in="SourceAlpha" type="matrix" values="0 0 0 0 0 0 0 0 0 0 0 0 0 0 0 0 0 0 127 0" result="hardAlpha"/>
<feOffset dy="1"/>
<feGaussianBlur stdDeviation="4"/>
<feComposite in2="hardAlpha" operator="out"/>
<feColorMatrix type="matrix" values="0 0 0 0 1 0 0 0 0 1 0 0 0 0 1 0 0 0 0.8 0"/>
<feBlend mode="normal" in2="BackgroundImageFix" result="effect1_dropShadow_1468_4158"/>
<feBlend mode="normal" in="SourceGraphic" in2="effect1_dropShadow_1468_4158" result="shape"/>
<feColorMatrix in="SourceAlpha" type="matrix" values="0 0 0 0 0 0 0 0 0 0 0 0 0 0 0 0 0 0 127 0" result="hardAlpha"/>
<feOffset/>
<feGaussianBlur stdDeviation="2"/>
<feComposite in2="hardAlpha" operator="arithmetic" k2="-1" k3="1"/>
<feColorMatrix type="matrix" values="0 0 0 0 0 0 0 0 0 0 0 0 0 0 0 0 0 0 0.02 0"/>
<feBlend mode="normal" in2="shape" result="effect2_innerShadow_1468_4158"/>
</filter>
</defs>
</svg>
