<svg width="20" height="20" viewBox="0 0 20 20" fill="none" xmlns="http://www.w3.org/2000/svg">
<g id="Group">
<path id="Vector" d="M13.9394 7.87903H20V12.1215H13.9394V7.87903ZM7.87879 0H12.1212V6.06085H7.87879V0ZM0 19.0909C0 19.593 0.40703 20 0.909091 20H6.06061V13.9396H0V19.0909ZM19.0909 0H13.9394V6.06085H20V0.909091C20 0.40703 19.593 0 19.0909 0ZM7.87879 13.9396H12.1212V20H7.87879V13.9396ZM13.9394 20H19.0909C19.593 20 20 19.593 20 19.0909V13.9396H13.9394V20ZM0 7.87903H6.06061V12.1215H0V7.87903ZM6.06061 0H0.909091C0.40703 0 0 0.40703 0 0.909091V6.06085H6.06061V0ZM7.87879 7.87903H12.1212V12.1215H7.87879V7.87903Z" fill="#001336"/>
</g>
</svg>
