<svg width="24" height="24" viewBox="0 0 24 24" fill="none" xmlns="http://www.w3.org/2000/svg">
<g id="Frame" clip-path="url(#clip0_1274_5699)">
<g id="Group">
<path id="Vector" d="M22.3895 22.078H22.1814C22.0893 21.198 21.4592 20.4762 20.6269 20.2475V8.4517C20.6269 8.36104 20.5908 8.27408 20.5267 8.20997C20.4626 8.14586 20.3757 8.10984 20.285 8.10984C20.1943 8.10984 20.1074 8.14586 20.0433 8.20997C19.9792 8.27408 19.9431 8.36104 19.9431 8.4517V20.1745C19.9419 20.1745 19.9406 20.1747 19.9393 20.1748C19.925 20.1756 19.9108 20.1772 19.8964 20.1784C19.8697 20.1804 19.8431 20.1824 19.8166 20.1854C19.8003 20.1873 19.7841 20.19 19.7678 20.1922C19.7437 20.1955 19.7195 20.1988 19.6956 20.2029C19.6786 20.2058 19.6618 20.2095 19.645 20.2128C19.622 20.2173 19.599 20.2218 19.5763 20.2271C19.5592 20.2311 19.5423 20.2357 19.5254 20.2401C19.5033 20.2458 19.4811 20.2515 19.4593 20.258C19.4422 20.263 19.4255 20.2685 19.4086 20.2739C19.3871 20.2808 19.3657 20.2877 19.3446 20.2953C19.3278 20.3013 19.3111 20.3077 19.2945 20.314C19.257 20.3284 19.2199 20.3439 19.1834 20.3605C19.1665 20.3682 19.1496 20.3759 19.1328 20.384V18.1142C19.1328 17.8878 18.9486 17.7036 18.7221 17.7036H17.0696C16.8432 17.7036 16.6589 17.8878 16.6589 18.1142V20.408C16.6589 20.6344 16.8432 20.8186 17.0696 20.8186H18.5344C18.5241 20.8293 18.5135 20.8396 18.5034 20.8505C18.4849 20.8705 18.4671 20.8914 18.4492 20.9122C18.4405 20.9223 18.4314 20.9321 18.4229 20.9424C18.3968 20.974 18.3715 21.0064 18.3472 21.0395C18.3088 21.0473 18.2708 21.0567 18.2333 21.067C18.2212 21.0704 18.2094 21.0743 18.1974 21.078C18.1721 21.0855 18.1469 21.0934 18.1221 21.1021C18.1084 21.1069 18.0948 21.1122 18.0812 21.1174C18.0445 21.1313 18.0084 21.1465 17.9728 21.1629C17.9509 21.173 17.9293 21.1836 17.9079 21.1946C17.8951 21.2012 17.8822 21.2078 17.8695 21.2147C17.8469 21.227 17.8249 21.24 17.803 21.2534C17.7922 21.2599 17.7813 21.2661 17.7708 21.2728C17.742 21.2911 17.7138 21.3104 17.6863 21.3303C17.6831 21.3326 17.6798 21.3346 17.6766 21.3369C17.6459 21.3596 17.616 21.3833 17.5868 21.4079C17.5787 21.4148 17.5709 21.4222 17.5628 21.4292C17.5423 21.4472 17.522 21.4655 17.5023 21.4845C17.4925 21.494 17.483 21.5039 17.4734 21.5136C17.4561 21.531 17.4392 21.5488 17.4227 21.567C17.3968 21.5956 17.3719 21.6252 17.348 21.6555C17.3391 21.6667 17.3302 21.678 17.3216 21.6895C17.3064 21.7098 17.2918 21.7305 17.2775 21.7515C17.2702 21.7623 17.2626 21.7728 17.2556 21.7838C17.2387 21.8099 17.2225 21.8366 17.2071 21.8637C17.2034 21.87 17.1995 21.876 17.196 21.8823C17.1772 21.9161 17.1595 21.9506 17.143 21.9856C17.1388 21.9947 17.1351 22.004 17.131 22.0131C17.1213 22.0346 17.1114 22.056 17.1026 22.078H12.6901V17.0508L12.8195 17.1368C12.8449 17.1537 12.8711 17.1692 12.898 17.1833C12.9034 17.1861 12.9092 17.1882 12.9147 17.1909C13.0577 17.2616 13.2174 17.2917 13.3764 17.2778C13.4223 17.2742 13.4679 17.267 13.5126 17.2561C13.5715 17.2413 13.6286 17.2204 13.6831 17.1937C13.6869 17.1918 13.6904 17.1894 13.6941 17.1875C13.7172 17.1757 13.74 17.1635 13.7618 17.1498L13.7624 17.1494C13.7877 17.1335 13.812 17.1165 13.8355 17.0982C13.8391 17.0954 13.8423 17.0921 13.8458 17.0893C13.9367 17.0164 14.012 16.9259 14.0672 16.8233C14.1288 16.7089 14.1639 16.582 14.1698 16.4522C14.1757 16.3223 14.1523 16.1928 14.1013 16.0732H15.5009C15.7274 16.0732 15.9116 15.889 15.9116 15.6626V13.3688C15.9116 13.1424 15.7274 12.9582 15.5009 12.9582H13.8482C13.6218 12.9582 13.4376 13.1424 13.4376 13.3688V15.4602L12.6902 14.9631V13.3688C12.6902 13.1423 12.506 12.9581 12.2796 12.9581H10.627C10.4173 12.9581 10.2441 13.1163 10.2196 13.3195L9.40597 12.7783V2.1255H19.9431V6.32775C19.9431 6.41842 19.9792 6.50537 20.0433 6.56948C20.1074 6.63359 20.1943 6.66961 20.285 6.66961C20.3757 6.66961 20.4626 6.63359 20.5267 6.56948C20.5908 6.50537 20.6269 6.41842 20.6269 6.32775V2.01647C20.6269 1.69959 20.3691 1.44178 20.0522 1.44178H19.5278V0.492C19.5277 0.220734 19.3071 0 19.0357 0H10.3133C10.042 0 9.82133 0.220734 9.82133 0.492V1.44173H9.29694C8.98007 1.44173 8.72225 1.69955 8.72225 2.01642V12.3235L8.30282 12.0445C8.22376 11.9917 8.13083 11.9635 8.03575 11.9635C7.94068 11.9635 7.84774 11.9917 7.76868 12.0445L6.37133 12.974V12.5129C6.37133 12.2101 6.12505 11.9638 5.82229 11.9638H4.19047C3.88771 11.9638 3.64143 12.2101 3.64143 12.5129V13.0574C3.64143 13.2668 3.75932 13.449 3.93215 13.5416V14.5965L2.28936 15.6894C2.10874 15.8086 1.97931 15.9911 1.92658 16.201C1.87384 16.4109 1.90163 16.6329 2.00446 16.8233C2.0617 16.9301 2.14058 17.0237 2.23604 17.0982C2.33151 17.1727 2.44147 17.2265 2.5589 17.2561C2.67638 17.2855 2.79871 17.2901 2.91806 17.2696C3.03742 17.249 3.15118 17.2038 3.25208 17.1368L3.38146 17.0508V18.738C3.38146 18.7828 3.3903 18.8273 3.40748 18.8688C3.42466 18.9103 3.44984 18.9479 3.48159 18.9797C3.51333 19.0114 3.55102 19.0366 3.59249 19.0538C3.63397 19.071 3.67842 19.0798 3.72332 19.0798C3.76821 19.0798 3.81266 19.071 3.85414 19.0538C3.89562 19.0366 3.9333 19.0114 3.96505 18.9797C3.99679 18.9479 4.02197 18.9103 4.03915 18.8688C4.05633 18.8273 4.06518 18.7828 4.06518 18.738V16.596L8.03577 13.9547L12.0064 16.596V22.0781H7.62341V18.4049C7.62341 18.1351 7.4039 17.9156 7.13408 17.9156H4.90124C4.63138 17.9156 4.41191 18.1351 4.41191 18.4049V22.0781H4.06518V20.862C4.06518 20.8171 4.05633 20.7726 4.03915 20.7311C4.02197 20.6897 3.99679 20.652 3.96505 20.6202C3.9333 20.5885 3.89562 20.5633 3.85414 20.5461C3.81266 20.5289 3.76821 20.5201 3.72332 20.5201C3.67842 20.5201 3.63397 20.5289 3.59249 20.5461C3.55102 20.5633 3.51333 20.5885 3.48159 20.6202C3.44984 20.652 3.42466 20.6897 3.40748 20.7311C3.3903 20.7726 3.38146 20.8171 3.38146 20.862V22.0781H1.61052C1.08065 22.0781 0.649536 22.5092 0.649536 23.0391C0.649536 23.5689 1.0806 24 1.61047 24H22.3895C22.9194 24 23.3505 23.5689 23.3505 23.039C23.3505 22.5091 22.9194 22.078 22.3895 22.078ZM18.449 20.1349H17.3426V18.3873H18.449V20.1349ZM14.1214 13.6419H15.2278V15.3895H14.1214V13.6419ZM10.5051 0.683719H18.844V1.44178H10.5051V0.683719ZM17.8926 22.0685C17.8959 22.0644 17.8993 22.0604 17.9027 22.0563C17.9167 22.0396 17.9311 22.0233 17.946 22.0076L17.95 22.0033C17.9699 21.9827 17.9906 21.963 18.0121 21.9442C18.0295 21.9289 18.0472 21.9141 18.0656 21.9C18.0671 21.8988 18.0687 21.8978 18.0702 21.8966C18.0876 21.8834 18.1055 21.8709 18.1236 21.8589C18.128 21.856 18.1324 21.8531 18.1368 21.8503C18.1561 21.8379 18.1759 21.826 18.1961 21.815C18.1995 21.8131 18.2031 21.8114 18.2065 21.8095C18.2248 21.7998 18.2434 21.7906 18.2623 21.7819C18.2665 21.78 18.2706 21.778 18.2747 21.7762C18.2959 21.7668 18.3175 21.7582 18.3394 21.7503C18.3441 21.7486 18.3487 21.747 18.3534 21.7455C18.3736 21.7384 18.3942 21.732 18.415 21.7262C18.4179 21.7254 18.4208 21.7244 18.4238 21.7236C18.4521 21.7161 18.4807 21.7099 18.5096 21.7048C18.5337 21.7004 18.5579 21.6969 18.5822 21.6942C18.6338 21.6888 18.6835 21.6717 18.7275 21.6442C18.7715 21.6167 18.8087 21.5796 18.8362 21.5356C19.1029 21.1094 19.5616 20.8549 20.0631 20.8549C20.0912 20.8549 20.1195 20.8559 20.1484 20.8577L20.1547 20.8581C20.1834 20.86 20.2126 20.8628 20.2429 20.8665L20.2467 20.8668C20.8844 20.948 21.3938 21.4458 21.4922 22.078H17.8853C17.8879 22.0749 17.8901 22.0716 17.8926 22.0685ZM10.9001 13.6419H12.0065V14.5083L10.9001 13.7723V13.6419ZM4.32515 12.6475H5.68761V12.9227H4.32515V12.6475ZM5.3969 13.6065V13.6222L4.61591 14.1417V13.6065H5.3969ZM8.30277 13.3111C8.24783 13.2749 8.18604 13.2503 8.12122 13.2388C8.11588 13.2378 8.11063 13.236 8.10529 13.2352C8.10393 13.2351 8.10252 13.2352 8.10116 13.235C8.006 13.222 7.90914 13.2379 7.8231 13.2805C7.80458 13.2897 7.78626 13.2995 7.76872 13.3111L2.87343 16.5675C2.85195 16.582 2.82767 16.5917 2.80217 16.5961C2.77668 16.6004 2.75055 16.5994 2.72549 16.593C2.70039 16.5868 2.67688 16.5754 2.6565 16.5594C2.63612 16.5435 2.61933 16.5235 2.60722 16.5007C2.58528 16.46 2.57935 16.4126 2.5906 16.3679C2.60186 16.3231 2.62948 16.2841 2.66802 16.2587L8.03577 12.688L13.4035 16.2587C13.442 16.2841 13.4696 16.3231 13.4809 16.3679C13.4921 16.4127 13.4862 16.46 13.4642 16.5007C13.4521 16.5235 13.4353 16.5435 13.4149 16.5594C13.3946 16.5753 13.3711 16.5868 13.346 16.593C13.3209 16.5994 13.2948 16.6004 13.2693 16.596C13.2438 16.5916 13.2195 16.5819 13.198 16.5675L12.5375 16.1281L8.30277 13.3111ZM5.09563 18.5992H6.93965V22.078H5.09563V18.5992ZM22.3895 23.3163H1.61043C1.53692 23.3162 1.46644 23.287 1.41447 23.235C1.36249 23.183 1.33325 23.1125 1.33316 23.039C1.33325 22.9655 1.36249 22.895 1.41447 22.8431C1.46644 22.7911 1.53692 22.7618 1.61043 22.7618H22.3895C22.463 22.7618 22.5334 22.7911 22.5854 22.8431C22.6374 22.895 22.6666 22.9655 22.6667 23.039C22.6667 23.1125 22.6374 23.183 22.5854 23.235C22.5335 23.287 22.463 23.3162 22.3895 23.3163Z" fill="black" fill-opacity="0.85"/>
<path id="Vector_2" d="M11.1118 18.407H8.43231C8.1894 18.407 7.99182 18.6046 7.99182 18.8475V20.4772C7.99182 20.5679 8.02784 20.6548 8.09195 20.7189C8.15606 20.7831 8.24301 20.8191 8.33368 20.8191H11.2104C11.301 20.8191 11.388 20.7831 11.4521 20.7189C11.5162 20.6548 11.5522 20.5679 11.5522 20.4772V18.8475C11.5522 18.6046 11.3547 18.407 11.1118 18.407ZM10.8685 20.1354H8.67549V19.0906H10.8685V20.1354ZM12.2794 3.46777H10.6268C10.4004 3.46777 10.2162 3.65199 10.2162 3.87845V6.17227C10.2162 6.39868 10.4004 6.5829 10.6268 6.5829H12.2794C12.5058 6.5829 12.69 6.39868 12.69 6.17227V3.87845H12.6901C12.69 3.65199 12.5059 3.46777 12.2794 3.46777ZM12.0063 5.89913H10.8999V4.15149H12.0063V5.89913ZM15.5007 3.46777H13.8481C13.6216 3.46777 13.4374 3.65199 13.4374 3.87845V6.17227C13.4374 6.39868 13.6216 6.5829 13.8481 6.5829H15.5006C15.7271 6.5829 15.9113 6.39868 15.9113 6.17227V3.87845H15.9113C15.9113 3.65199 15.7271 3.46777 15.5007 3.46777ZM15.2275 5.89913H14.1212V4.15149H15.2275V5.89913ZM18.7219 3.46777H17.0693C16.8429 3.46777 16.6586 3.65199 16.6586 3.87845V6.17227C16.6586 6.39868 16.8429 6.5829 17.0693 6.5829H18.7218C18.9483 6.5829 19.1325 6.39868 19.1325 6.17227V3.87845C19.1325 3.65199 18.9483 3.46777 18.7219 3.46777ZM18.4488 5.89913H17.3424V4.15149H18.4488V5.89913ZM12.2794 8.21321H10.6268C10.4004 8.21321 10.2162 8.39743 10.2162 8.62384V10.9176C10.2162 11.1441 10.4004 11.3283 10.6268 11.3283H12.2794C12.5058 11.3283 12.69 11.1441 12.69 10.9176V8.62379C12.69 8.39743 12.5058 8.21321 12.2794 8.21321ZM12.0063 10.6446H10.8999V8.89693H12.0063V10.6446ZM15.5007 8.21321H13.8481C13.6216 8.21321 13.4374 8.39743 13.4374 8.62384V10.9176C13.4374 11.1441 13.6216 11.3283 13.8481 11.3283H15.5006C15.7271 11.3283 15.9113 11.1441 15.9113 10.9176V8.62379C15.9113 8.39743 15.727 8.21321 15.5007 8.21321ZM15.2275 10.6446H14.1212V8.89693H15.2275V10.6446ZM18.7219 8.21321H17.0693C16.8429 8.21321 16.6586 8.39743 16.6586 8.62384V10.9176C16.6586 11.1441 16.8429 11.3283 17.0693 11.3283H18.7218C18.9483 11.3283 19.1325 11.1441 19.1325 10.9176V8.62384C19.1325 8.39743 18.9483 8.21321 18.7219 8.21321ZM18.4488 10.6446H17.3424V8.89693H18.4488V10.6446ZM18.7219 12.9586H17.0693C16.8429 12.9586 16.6586 13.1428 16.6586 13.3692V15.6631C16.6586 15.8895 16.8429 16.0737 17.0693 16.0737H18.7218C18.9483 16.0737 19.1325 15.8895 19.1325 15.6631V13.3692C19.1325 13.1428 18.9482 12.9586 18.7219 12.9586ZM18.4488 15.39H17.3424V13.6423H18.4488V15.39ZM15.5694 17.704H13.7793C13.6886 17.704 13.6017 17.74 13.5376 17.8041C13.4734 17.8682 13.4374 17.9552 13.4374 18.0459V20.4772C13.4374 20.5679 13.4734 20.6548 13.5376 20.7189C13.6017 20.7831 13.6886 20.8191 13.7793 20.8191H15.5694C15.6601 20.8191 15.747 20.7831 15.8111 20.7189C15.8752 20.6548 15.9113 20.5679 15.9113 20.4772V18.0459C15.9112 17.9552 15.8752 17.8682 15.8111 17.8041C15.747 17.74 15.6601 17.704 15.5694 17.704ZM15.2275 20.1354H14.1212V18.3877H15.2275V20.1354Z" fill="black" fill-opacity="0.85"/>
</g>
</g>
<defs>
<clipPath id="clip0_1274_5699">
<rect width="24" height="24" fill="white"/>
</clipPath>
</defs>
</svg>
