<svg width="24" height="24" viewBox="0 0 24 24" fill="none" xmlns="http://www.w3.org/2000/svg">
<g id="Frame" clip-path="url(#clip0_1274_5804)">
<g id="Group">
<path id="Vector" d="M22.6317 15.7983V14.5079C22.6317 13.3046 21.6527 12.3256 20.4494 12.3256H12.0917C11.9983 12.3256 11.9087 12.3628 11.8426 12.4288C11.7766 12.4949 11.7394 12.5845 11.7394 12.6779C11.7394 12.7713 11.7766 12.8609 11.8426 12.927C11.9087 12.9931 11.9983 13.0302 12.0917 13.0302H20.4494C21.2643 13.0302 21.9272 13.6931 21.9272 14.508V15.7984C21.1469 15.9614 20.5589 16.6545 20.5589 17.4825V18.7907H9.30392V17.4825C9.30392 16.6545 8.71596 15.9614 7.93568 15.7984V14.508C7.93568 13.6931 8.59863 13.0302 9.41346 13.0302H10.6827C10.7762 13.0302 10.8658 12.9931 10.9318 12.927C10.9979 12.8609 11.035 12.7713 11.035 12.6779C11.035 12.5845 10.9979 12.4949 10.9318 12.4288C10.8658 12.3628 10.7762 12.3256 10.6827 12.3256H9.41346C8.21013 12.3256 7.2312 13.3046 7.2312 14.5079V15.7983C6.45091 15.9613 5.86292 16.6545 5.86292 17.4824V22.4993C5.86291 22.5456 5.87202 22.5914 5.88972 22.6341C5.90742 22.6769 5.93337 22.7157 5.96608 22.7484C5.99879 22.7811 6.03763 22.8071 6.08037 22.8248C6.12311 22.8425 6.16892 22.8516 6.21518 22.8516H17.08C17.2745 22.8516 17.4322 22.6939 17.4322 22.4993C17.4322 22.3047 17.2745 22.147 17.08 22.147H9.30392V19.4951H20.5589V22.147H18.4889C18.2944 22.147 18.1367 22.3047 18.1367 22.4993C18.1367 22.6939 18.2944 22.8516 18.4889 22.8516H23.6477C23.694 22.8516 23.7398 22.8425 23.7825 22.8248C23.8253 22.8071 23.8641 22.7811 23.8968 22.7484C23.9295 22.7157 23.9555 22.6769 23.9732 22.6341C23.9909 22.5914 24 22.5456 24 22.4993V17.4825C23.9999 16.6545 23.412 15.9614 22.6317 15.7983ZM6.5674 17.4825C6.5674 16.9223 7.02317 16.4665 7.58342 16.4665C8.14367 16.4665 8.59943 16.9223 8.59943 17.4825V22.1471H6.5674V17.4825ZM23.2954 22.1471H21.2634V17.4825C21.2634 16.9223 21.7192 16.4665 22.2794 16.4665C22.8396 16.4665 23.2954 16.9223 23.2954 17.4825V22.1471H23.2954ZM8.97556 9.81193C8.99276 9.98949 9.14749 10.1298 9.32609 10.1298H20.5368C20.7283 10.1298 20.889 9.96915 20.889 9.77752V1.49973C20.889 1.3081 20.7284 1.14746 20.5368 1.14746H18.4889C18.2944 1.14746 18.1367 1.30515 18.1367 1.49973C18.1367 1.6943 18.2944 1.85199 18.4889 1.85199H19.6864L19.0342 2.50412H10.8286L10.1764 1.85199H17.0799C17.2744 1.85199 17.4321 1.6943 17.4321 1.49973C17.4321 1.30515 17.2744 1.14746 17.0799 1.14746H9.32604C9.13427 1.14746 8.97377 1.30834 8.97377 1.49973V9.77752C8.97382 9.78887 8.97443 9.80063 8.97556 9.81193ZM10.1764 9.4253L10.8286 8.77313H19.0342L19.6863 9.4253H10.1764ZM18.8279 8.0686H15.6274L15.0402 7.41638L16.9446 5.3011C17.0578 5.17524 17.2592 5.17707 17.3719 5.30232L18.8279 6.90395V8.0686ZM14.6794 8.0686H11.035V7.81168L12.5765 6.09934C12.6637 6.00249 12.8194 6.00245 12.9065 6.09934L14.6794 8.0686ZM20.1845 2.35018V8.92707L19.5324 8.27495V3.0023L20.1845 2.35018ZM18.8279 5.85662L17.8944 4.82973C17.5065 4.3989 16.8089 4.3989 16.421 4.82973L14.5662 6.88988L13.4301 5.62796C13.3432 5.53152 13.237 5.4544 13.1184 5.40159C12.9998 5.34877 12.8714 5.32144 12.7416 5.32135C12.4811 5.32135 12.2272 5.43441 12.0529 5.62796L11.035 6.75873V3.2086H18.8279V5.85662ZM10.3304 3.0023V8.27499L9.67831 8.92712V2.35018L10.3304 3.0023Z" fill="black" fill-opacity="0.85"/>
<path id="Vector_2" d="M3.96997 20.8778H3.62436V8.68659H4.52914V12.6722C4.52914 12.7657 4.56625 12.8553 4.63232 12.9213C4.69838 12.9874 4.78798 13.0245 4.88141 13.0245C4.97483 13.0245 5.06443 12.9874 5.13049 12.9213C5.19656 12.8553 5.23367 12.7657 5.23367 12.6722V8.68659H6.19212C6.41473 8.68659 6.58517 8.47298 6.53553 8.25581L5.30028 2.85267C5.2825 2.77489 5.23884 2.70546 5.17646 2.65573C5.11407 2.606 5.03665 2.57892 4.95687 2.57892H1.58731C1.50753 2.57892 1.43011 2.606 1.36773 2.65573C1.30534 2.70546 1.26169 2.77489 1.24391 2.85267L0.00865556 8.25581C-0.0409851 8.47298 0.129452 8.68659 0.352062 8.68659H2.91987V20.8777H2.57427C1.70928 20.8777 1.00559 21.5814 1.00559 22.4464V22.4993C1.00559 22.5456 1.0147 22.5914 1.03241 22.6341C1.05011 22.6768 1.07606 22.7157 1.10877 22.7484C1.14148 22.7811 1.18031 22.807 1.22305 22.8247C1.26579 22.8424 1.3116 22.8516 1.35786 22.8516H5.18637C5.23263 22.8516 5.27844 22.8424 5.32118 22.8247C5.36392 22.807 5.40275 22.7811 5.43546 22.7484C5.46817 22.7157 5.49412 22.6768 5.51183 22.6341C5.52953 22.5914 5.53864 22.5456 5.53864 22.4993V22.4464C5.53859 21.5815 4.83491 20.8778 3.96997 20.8778ZM1.86814 3.28345H4.67609L5.75028 7.98211H0.793906L1.86814 3.28345ZM1.76351 22.1471C1.88553 21.8177 2.20287 21.5823 2.57422 21.5823H3.96992C4.34126 21.5823 4.65861 21.8176 4.78062 22.1471H1.76351ZM14.5663 5.58253C15.1148 5.58253 15.561 5.13628 15.561 4.58779C15.561 4.03926 15.1148 3.59306 14.5663 3.59306C14.0178 3.59306 13.5716 4.03931 13.5716 4.58779C13.5716 5.13628 14.0178 5.58253 14.5663 5.58253ZM14.5663 4.29754C14.7263 4.29754 14.8565 4.42776 14.8565 4.58779C14.8565 4.74782 14.7263 4.87804 14.5663 4.87804C14.4063 4.87804 14.276 4.74782 14.276 4.58779C14.2761 4.51084 14.3067 4.43707 14.3612 4.38265C14.4156 4.32824 14.4893 4.29763 14.5663 4.29754Z" fill="black" fill-opacity="0.85"/>
</g>
</g>
<defs>
<clipPath id="clip0_1274_5804">
<rect width="24" height="24" fill="white"/>
</clipPath>
</defs>
</svg>
