<svg width="20" height="20" viewBox="0 0 20 20" fill="none" xmlns="http://www.w3.org/2000/svg">
<g id="Frame" clip-path="url(#clip0_1327_4064)">
<g id="Group">
<path id="Union" fill-rule="evenodd" clip-rule="evenodd" d="M2.75207 1.9455C2.75207 1.52965 3.08918 1.19254 3.50504 1.19254C3.92089 1.19254 4.25801 1.52965 4.25801 1.9455V3.61748C4.25804 4.03334 3.9209 4.37046 3.50504 4.37046C3.08918 4.37046 2.75207 4.03335 2.75207 3.6175V1.9455ZM3.50504 0.606598C2.76558 0.606598 2.16613 1.20605 2.16613 1.9455V2.18437H1.55C0.694057 2.18437 0 2.87843 0 3.73437V8.13871C0 8.30051 0.131167 8.43167 0.292969 8.43167C0.454771 8.43167 0.585938 8.30051 0.585938 8.13871V6.89062H19.4141V17.8436C19.4141 18.3759 18.9825 18.8075 18.4502 18.8075H16.208C16.0462 18.8075 15.915 18.9386 15.915 19.1004C15.915 19.2622 16.0462 19.3934 16.208 19.3934H18.4502C19.3061 19.3934 20 18.6995 20 17.8436V3.73437C20 2.87843 19.3059 2.18437 18.45 2.18437H17.8339V1.9455C17.8339 1.20605 17.2344 0.606598 16.495 0.606598C15.7555 0.606598 15.1561 1.20605 15.1561 1.9455V2.18437H11.3389V1.9455C11.3389 1.20605 10.7395 0.606598 10 0.606598C9.26054 0.606598 8.66109 1.20605 8.66109 1.9455V2.18437H4.84395V1.9455C4.84395 1.20605 4.2445 0.606598 3.50504 0.606598ZM4.84395 2.77031V3.61744C4.84398 4.35695 4.24448 4.9564 3.50504 4.9564C2.76558 4.9564 2.16613 4.35695 2.16613 3.6175V2.77031H1.55C1.01766 2.77031 0.585938 3.20203 0.585938 3.73437V6.30468H19.4141V3.73437C19.4141 3.20203 18.9823 2.77031 18.45 2.77031H17.8339V3.61746C17.8339 4.35695 17.2344 4.9564 16.495 4.9564C15.7555 4.9564 15.1561 4.35695 15.1561 3.6175V2.77031H11.3389V3.61746C11.3389 4.35695 10.7395 4.9564 10 4.9564C9.26054 4.9564 8.66109 4.35695 8.66109 3.6175V2.77031H4.84395ZM9.24703 1.9455C9.24703 1.52965 9.58415 1.19254 10 1.19254C10.4159 1.19254 10.753 1.52965 10.753 1.9455V3.61746C10.753 4.03336 10.4158 4.37046 10 4.37046C9.58415 4.37046 9.24703 4.03335 9.24703 3.6175V1.9455ZM15.742 1.9455C15.742 1.52965 16.0791 1.19254 16.495 1.19254C16.9108 1.19254 17.2479 1.52965 17.2479 1.9455V3.61746C17.2479 4.03336 16.9108 4.37046 16.495 4.37046C16.0791 4.37046 15.742 4.03335 15.742 3.6175V1.9455ZM2.49809 9.60078C2.50937 9.5895 2.52467 9.58316 2.54063 9.58316H4.26828C4.28423 9.58316 4.29954 9.5895 4.31082 9.60078C4.3221 9.61206 4.32844 9.62736 4.32844 9.64332V11.371C4.32844 11.3789 4.32688 11.3867 4.32386 11.394C4.32084 11.4013 4.31641 11.4079 4.31083 11.4135C4.30525 11.4191 4.29862 11.4235 4.29133 11.4266C4.28403 11.4296 4.27622 11.4311 4.26832 11.4311H2.54063C2.53272 11.4311 2.5249 11.4296 2.5176 11.4265C2.51031 11.4235 2.50367 11.4191 2.49809 11.4135C2.4925 11.4079 2.48807 11.4013 2.48505 11.394C2.48202 11.3867 2.48047 11.3789 2.48047 11.371V9.64332C2.48047 9.62736 2.48681 9.61206 2.49809 9.60078ZM2.54063 8.99722C2.36927 8.99722 2.20493 9.06529 2.08377 9.18646C1.9626 9.30762 1.89453 9.47196 1.89453 9.64332V11.371C1.89453 11.4558 1.91124 11.5398 1.94371 11.6182C1.97618 11.6966 2.02377 11.7678 2.08377 11.8278C2.14376 11.8878 2.21499 11.9354 2.29338 11.9679C2.37177 12.0004 2.45578 12.0171 2.54063 12.0171H4.26832C4.35317 12.0171 4.43718 12.0004 4.51557 11.9679C4.59396 11.9354 4.66518 11.8878 4.72518 11.8278C4.78517 11.7678 4.83275 11.6966 4.86522 11.6182C4.89768 11.5398 4.91438 11.4558 4.91437 11.3709V9.64332C4.91437 9.47196 4.8463 9.30762 4.72514 9.18646C4.60397 9.06529 4.43964 8.99722 4.26828 8.99722H2.54063ZM6.89512 9.60078C6.9064 9.5895 6.9217 9.58316 6.93766 9.58316H8.66531C8.68127 9.58316 8.69657 9.5895 8.70785 9.60078C8.71913 9.61206 8.72547 9.62736 8.72547 9.64332V11.371C8.72547 11.3789 8.72391 11.3867 8.72089 11.394C8.71787 11.4013 8.71343 11.4079 8.70785 11.4135C8.70226 11.4191 8.69563 11.4235 8.68833 11.4265C8.68104 11.4296 8.67322 11.4311 8.66531 11.4311H6.93766C6.92975 11.4311 6.92193 11.4296 6.91464 11.4265C6.90734 11.4235 6.90071 11.4191 6.89512 11.4135C6.88953 11.4079 6.8851 11.4013 6.88208 11.394C6.87906 11.3867 6.8775 11.3789 6.8775 11.371V9.64332C6.8775 9.62736 6.88384 9.61206 6.89512 9.60078ZM6.93766 8.99722C6.7663 8.99722 6.60196 9.06529 6.4808 9.18646C6.35963 9.30762 6.29156 9.47196 6.29156 9.64332V11.371C6.29156 11.4558 6.30828 11.5398 6.34074 11.6182C6.37321 11.6966 6.4208 11.7678 6.4808 11.8278C6.54079 11.8878 6.61202 11.9354 6.69041 11.9679C6.7688 12.0004 6.85281 12.0171 6.93766 12.0171H8.66531C8.75016 12.0171 8.83417 12.0004 8.91256 11.9679C8.99095 11.9354 9.06217 11.8878 9.12217 11.8278C9.18217 11.7678 9.22976 11.6966 9.26223 11.6182C9.29469 11.5398 9.31141 11.4558 9.31141 11.371V9.64332C9.31141 9.47196 9.24334 9.30762 9.12217 9.18646C9.001 9.06529 8.83667 8.99722 8.66531 8.99722H6.93766ZM11.2922 9.60078C11.3034 9.5895 11.3187 9.58316 11.3347 9.58316H13.0623C13.0783 9.58316 13.0936 9.5895 13.1049 9.60078C13.1162 9.61206 13.1225 9.62736 13.1225 9.64332V11.371C13.1225 11.3789 13.1209 11.3867 13.1179 11.394C13.1149 11.4013 13.1105 11.4079 13.1049 11.4135C13.0993 11.4191 13.0927 11.4235 13.0854 11.4265C13.0781 11.4296 13.0702 11.4311 13.0623 11.4311H11.3347C11.3268 11.4311 11.319 11.4296 11.3117 11.4265C11.3044 11.4235 11.2977 11.4191 11.2922 11.4135C11.2866 11.4079 11.2821 11.4013 11.2791 11.394C11.2761 11.3867 11.2745 11.3789 11.2745 11.371V9.64332C11.2745 9.62736 11.2809 9.61206 11.2922 9.60078ZM11.3347 8.99722C11.1633 8.99722 10.999 9.06529 10.8778 9.18646C10.7567 9.30762 10.6886 9.47196 10.6886 9.64332V11.371C10.6886 11.4558 10.7053 11.5398 10.7378 11.6182C10.7702 11.6966 10.8178 11.7678 10.8778 11.8278C10.9378 11.8878 11.009 11.9354 11.0874 11.9679C11.1658 12.0004 11.2498 12.0171 11.3347 12.0171H13.0623C13.1472 12.0171 13.2312 12.0004 13.3096 11.9679C13.388 11.9354 13.4592 11.8878 13.5192 11.8278C13.5792 11.7678 13.6268 11.6966 13.6593 11.6182C13.6917 11.5398 13.7084 11.4558 13.7084 11.371V9.64332C13.7084 9.47196 13.6404 9.30762 13.5192 9.18646C13.398 9.06529 13.2337 8.99722 13.0623 8.99722H11.3347ZM15.6892 9.60078C15.7005 9.5895 15.7158 9.58316 15.7317 9.58316H17.4594C17.4753 9.58316 17.4906 9.5895 17.5019 9.60078C17.5132 9.61206 17.5195 9.62736 17.5195 9.64332V11.371C17.5195 11.3789 17.518 11.3867 17.515 11.394C17.5119 11.4013 17.5075 11.4079 17.5019 11.4135C17.4963 11.4191 17.4897 11.4235 17.4824 11.4265C17.4751 11.4296 17.4673 11.4311 17.4594 11.4311H15.7317C15.7238 11.4311 15.716 11.4296 15.7087 11.4265C15.7014 11.4235 15.6948 11.4191 15.6892 11.4135C15.6836 11.4079 15.6792 11.4013 15.6761 11.394C15.6731 11.3867 15.6716 11.3789 15.6716 11.371V9.64332C15.6716 9.62736 15.6779 9.61206 15.6892 9.60078ZM15.7317 8.99722C15.5604 8.99722 15.396 9.06529 15.2749 9.18646C15.1537 9.30762 15.0856 9.47196 15.0856 9.64332V11.371C15.0856 11.4558 15.1023 11.5398 15.1348 11.6182C15.1673 11.6966 15.2149 11.7678 15.2749 11.8278C15.3349 11.8878 15.4061 11.9354 15.4845 11.9679C15.5629 12.0004 15.6469 12.0171 15.7317 12.0171H17.4594C17.5442 12.0171 17.6282 12.0004 17.7066 11.9679C17.785 11.9354 17.8562 11.8878 17.9162 11.8278C17.9762 11.7678 18.0238 11.6966 18.0563 11.6182C18.0888 11.5398 18.1055 11.4558 18.1055 11.371V9.64332C18.1055 9.47196 18.0374 9.30762 17.9162 9.18646C17.7951 9.06529 17.6307 8.99722 17.4594 8.99722H15.7317ZM2.49809 14.2846C2.50937 14.2733 2.52467 14.2669 2.54063 14.2669H4.26828C4.28424 14.2669 4.29954 14.2733 4.31082 14.2846C4.3221 14.2958 4.32844 14.3111 4.32844 14.3271V16.0548C4.32844 16.0627 4.32688 16.0705 4.32386 16.0778C4.32084 16.0851 4.31641 16.0917 4.31083 16.0973C4.30525 16.1029 4.29862 16.1073 4.29133 16.1103C4.28403 16.1134 4.27622 16.1149 4.26832 16.1149H2.54063C2.52467 16.1149 2.50937 16.1086 2.49809 16.0973C2.48681 16.086 2.48047 16.0707 2.48047 16.0548V14.3271C2.48047 14.3112 2.48681 14.2958 2.49809 14.2846ZM2.54063 13.681C2.36927 13.681 2.20494 13.7491 2.08377 13.8702C1.9626 13.9914 1.89453 14.1557 1.89453 14.3271V16.0548C1.89453 16.2261 1.9626 16.3905 2.08377 16.5116C2.20494 16.6328 2.36927 16.7009 2.54063 16.7009H4.26832C4.35317 16.7009 4.43718 16.6841 4.51557 16.6517C4.59396 16.6192 4.66518 16.5716 4.72518 16.5116C4.78517 16.4516 4.83275 16.3804 4.86522 16.302C4.89768 16.2236 4.91438 16.1396 4.91437 16.0547V14.3271C4.91437 14.1557 4.8463 13.9914 4.72514 13.8702C4.60397 13.7491 4.43963 13.681 4.26828 13.681H2.54063ZM6.89512 14.2846C6.9064 14.2733 6.9217 14.2669 6.93766 14.2669H8.66531C8.68127 14.2669 8.69657 14.2733 8.70785 14.2846C8.71913 14.2958 8.72547 14.3111 8.72547 14.3271V16.0548C8.72547 16.0707 8.71913 16.086 8.70785 16.0973C8.69657 16.1086 8.68127 16.1149 8.66531 16.1149H6.93766C6.9217 16.1149 6.9064 16.1086 6.89512 16.0973C6.88384 16.086 6.8775 16.0707 6.8775 16.0548V14.3271C6.8775 14.3112 6.88384 14.2958 6.89512 14.2846ZM6.93766 13.681C6.7663 13.681 6.60197 13.7491 6.4808 13.8702C6.35963 13.9914 6.29156 14.1557 6.29156 14.3271V16.0548C6.29156 16.2261 6.35963 16.3905 6.4808 16.5116C6.60197 16.6328 6.7663 16.7009 6.93766 16.7009H8.66531C8.83667 16.7009 9.001 16.6328 9.12217 16.5116C9.24334 16.3905 9.31141 16.2261 9.31141 16.0548V14.3271C9.31141 14.1557 9.24334 13.9914 9.12217 13.8702C9.001 13.7491 8.83667 13.681 8.66531 13.681H6.93766ZM11.2922 14.2846C11.3034 14.2733 11.3187 14.2669 11.3347 14.2669H13.0623C13.0783 14.2669 13.0936 14.2733 13.1049 14.2846C13.1162 14.2958 13.1225 14.3112 13.1225 14.3271V16.0548C13.1225 16.0707 13.1162 16.086 13.1049 16.0973C13.0936 16.1086 13.0783 16.1149 13.0623 16.1149H11.3347C11.3187 16.1149 11.3034 16.1086 11.2922 16.0973C11.2809 16.086 11.2745 16.0707 11.2745 16.0548V14.3271C11.2745 14.3112 11.2809 14.2958 11.2922 14.2846ZM11.3347 13.681C11.1633 13.681 10.999 13.7491 10.8778 13.8702C10.7567 13.9914 10.6886 14.1557 10.6886 14.3271V16.0548C10.6886 16.2261 10.7567 16.3905 10.8778 16.5116C10.999 16.6328 11.1633 16.7009 11.3347 16.7009H13.0623C13.2337 16.7009 13.398 16.6328 13.5192 16.5116C13.6404 16.3905 13.7084 16.2261 13.7084 16.0548V14.3271C13.7084 14.1557 13.6404 13.9914 13.5192 13.8702C13.398 13.7491 13.2337 13.681 13.0623 13.681H11.3347ZM15.6892 14.2846C15.7005 14.2733 15.7158 14.2669 15.7317 14.2669H17.4594C17.4753 14.2669 17.4906 14.2733 17.5019 14.2846C17.5132 14.2958 17.5195 14.3112 17.5195 14.3271V16.0548C17.5195 16.0707 17.5132 16.086 17.5019 16.0973C17.4906 16.1086 17.4753 16.1149 17.4594 16.1149H15.7317C15.7158 16.1149 15.7005 16.1086 15.6892 16.0973C15.6779 16.086 15.6716 16.0707 15.6716 16.0548V14.3271C15.6716 14.3112 15.6779 14.2958 15.6892 14.2846ZM15.7317 13.681C15.5604 13.681 15.396 13.7491 15.2749 13.8702C15.1537 13.9914 15.0856 14.1557 15.0856 14.3271V16.0548C15.0856 16.2261 15.1537 16.3905 15.2749 16.5116C15.396 16.6328 15.5604 16.7009 15.7317 16.7009H17.4594C17.6307 16.7009 17.7951 16.6328 17.9162 16.5116C18.0374 16.3905 18.1055 16.2261 18.1055 16.0548V14.3271C18.1055 14.1557 18.0374 13.9914 17.9162 13.8702C17.7951 13.7491 17.6307 13.681 17.4594 13.681H15.7317ZM0.585938 9.40734C0.585938 9.24554 0.454771 9.11437 0.292969 9.11437C0.131167 9.11437 0 9.24554 0 9.40734V17.8436C0 18.6995 0.693861 19.3934 1.5498 19.3934H14.8203C14.9821 19.3934 15.1133 19.2622 15.1133 19.1004C15.1133 18.9386 14.9821 18.8075 14.8203 18.8075H1.5498C1.01747 18.8075 0.585938 18.3759 0.585938 17.8436V9.40734Z" fill="black" fill-opacity="0.85"/>
</g>
</g>
<defs>
<clipPath id="clip0_1327_4064">
<rect width="20" height="20" fill="white"/>
</clipPath>
</defs>
</svg>
