<svg width="24" height="24" viewBox="0 0 24 24" fill="none" xmlns="http://www.w3.org/2000/svg">
<g id="Frame">
<g id="Group">
<path id="Vector" d="M12 22.6823C11.6583 22.6823 11.3289 22.5585 11.0722 22.3336C10.1026 21.4858 9.16789 20.6891 8.34317 19.9864L8.33895 19.9827C5.92105 17.9223 3.8331 16.1428 2.38035 14.3899C0.75642 12.4304 0 10.5724 0 8.54268C0 6.57065 0.676217 4.75129 1.90392 3.41958C3.14629 2.07211 4.85099 1.32999 6.70457 1.32999C8.08995 1.32999 9.35867 1.76799 10.4755 2.6317C11.039 3.06764 11.5499 3.60122 12 4.22357C12.4502 3.60122 12.9609 3.06764 13.5247 2.6317C14.6415 1.76799 15.9102 1.32999 17.2956 1.32999C19.149 1.32999 20.8538 2.07211 22.0962 3.41958C23.3239 4.75129 24 6.57065 24 8.54268C24 10.5724 23.2437 12.4304 21.6198 14.3898C20.167 16.1428 18.0792 17.9221 15.6617 19.9824C14.8355 20.6862 13.8993 21.4842 12.9276 22.334C12.6708 22.5586 12.3412 22.6824 12 22.6823ZM6.70457 2.73586C5.24835 2.73586 3.91059 3.31706 2.93737 4.37245C1.94972 5.44382 1.40568 6.92479 1.40568 8.54268C1.40568 10.2498 2.04014 11.7765 3.4627 13.4929C4.83763 15.152 6.88274 16.8948 9.25067 18.9129L9.25503 18.9165C10.0828 19.622 11.0213 20.4218 11.998 21.2758C12.9805 20.4202 13.9204 19.6191 14.7498 18.9125C17.1176 16.8945 19.1625 15.152 20.5374 13.4929C21.9598 11.7765 22.5943 10.2498 22.5943 8.54268C22.5943 6.92474 22.0502 5.44378 21.0626 4.37245C20.0896 3.31706 18.7516 2.73586 17.2956 2.73586C16.2288 2.73586 15.2493 3.075 14.3846 3.74367C13.6139 4.33987 13.077 5.09353 12.7622 5.62087C12.6004 5.89204 12.3155 6.0539 12 6.0539C11.6845 6.0539 11.3996 5.89204 11.2377 5.62087C10.9232 5.09353 10.3863 4.33987 9.61536 3.74367C8.75061 3.075 7.77116 2.73586 6.70457 2.73586Z" fill="black" fill-opacity="0.85"/>
<path id="Vector_2" d="M12 22.6823C11.6583 22.6823 11.3289 22.5585 11.0722 22.3336C10.1026 21.4858 9.16789 20.6891 8.34317 19.9864L8.33895 19.9827C5.92105 17.9223 3.8331 16.1428 2.38035 14.3899C0.75642 12.4304 0 10.5724 0 8.54268C0 6.57065 0.676217 4.75129 1.90392 3.41958C3.14629 2.07211 4.85099 1.32999 6.70457 1.32999C8.08995 1.32999 9.35867 1.76799 10.4755 2.6317C11.039 3.06764 11.5499 3.60122 12 4.22357C12.4502 3.60122 12.9609 3.06764 13.5247 2.6317C14.6415 1.76799 15.9102 1.32999 17.2956 1.32999C19.149 1.32999 20.8538 2.07211 22.0962 3.41958C23.3239 4.75129 24 6.57065 24 8.54268C24 10.5724 23.2437 12.4304 21.6198 14.3898C20.167 16.1428 18.0792 17.9221 15.6617 19.9824C14.8355 20.6862 13.8993 21.4842 12.9276 22.334C12.6708 22.5586 12.3412 22.6824 12 22.6823Z" fill="#FF3519"/>
</g>
</g>
</svg>
