<svg width="24" height="24" viewBox="0 0 24 24" fill="none" xmlns="http://www.w3.org/2000/svg">
<g id="Frame" clip-path="url(#clip0_1274_5820)">
<g id="Group">
<path id="Vector (Stroke)" fill-rule="evenodd" clip-rule="evenodd" d="M13.9476 9.60383C14.809 8.74242 15.9173 8.23555 17.1105 8.55366C17.232 8.58603 17.3269 8.68076 17.3595 8.80212C17.3921 8.92348 17.3575 9.05303 17.2686 9.1419L16.1184 10.2926L15.8495 11.0995L16.3612 11.6112L17.1681 11.3423L18.3183 10.1921C18.4071 10.1033 18.5366 10.0686 18.658 10.1012C18.7793 10.1337 18.8741 10.2286 18.9065 10.35C19.2252 11.5428 18.7183 12.6517 17.8569 13.5131C17.402 13.9679 16.9227 14.1961 16.4022 14.2599C15.9601 14.3141 15.5087 14.2468 15.0508 14.1352L10.6175 18.5685C10.7292 19.0264 10.7964 19.4778 10.7422 19.9198C10.6784 20.4404 10.4502 20.9197 9.9954 21.3745C9.134 22.2359 8.02512 22.7429 6.83229 22.4242C6.71091 22.3917 6.61605 22.297 6.58349 22.1756C6.55093 22.0543 6.5856 21.9248 6.67445 21.8359L7.82464 20.6857L8.09352 19.8784L7.58189 19.3668L6.77498 19.636L5.62424 20.7863C5.53536 20.8751 5.40582 20.9098 5.28445 20.8772C5.16309 20.8446 5.06836 20.7496 5.03599 20.6282C4.71788 19.435 5.22476 18.3267 6.08617 17.4653C6.54101 17.0104 7.0203 16.7823 7.54074 16.7184C7.98271 16.6641 8.43401 16.7313 8.8917 16.8427L10.5323 15.2021C10.6696 15.0649 10.8922 15.0649 11.0295 15.2021C11.1668 15.3394 11.1668 15.562 11.0295 15.6993L9.24727 17.4815C9.15856 17.5702 9.0293 17.605 8.90808 17.5726C8.40368 17.4381 7.99343 17.3712 7.62641 17.4163C7.27438 17.4595 6.93664 17.6092 6.58335 17.9625C6.02659 18.5192 5.69313 19.1345 5.64926 19.7671L6.33653 19.0801C6.37509 19.0415 6.42209 19.0125 6.47381 18.9952L7.56554 18.631C7.69189 18.5889 7.83121 18.6217 7.92539 18.7159L8.7443 19.5348C8.83844 19.629 8.87133 19.7682 8.82926 19.8945L8.46551 20.9867C8.44825 21.0385 8.41917 21.0856 8.38055 21.1242L7.69353 21.8112C8.32603 21.7675 8.94146 21.4341 9.49822 20.8773C9.8515 20.524 10.0012 20.1863 10.0443 19.8343C10.0893 19.4672 10.0224 19.0569 9.88762 18.5522C9.85524 18.431 9.88995 18.3017 9.97869 18.2129L14.6953 13.4964C14.784 13.4076 14.9133 13.3729 15.0346 13.4053C15.5392 13.5401 15.9496 13.607 16.3166 13.562C16.6687 13.5188 17.0064 13.3692 17.3597 13.0159C17.9164 12.4591 18.2498 11.8437 18.2936 11.2112L17.6065 11.8982C17.5679 11.9368 17.5209 11.9659 17.4691 11.9832L16.3774 12.3469C16.251 12.389 16.1118 12.3561 16.0176 12.262L15.1987 11.4431C15.1046 11.3489 15.0717 11.2097 15.1138 11.0833L15.4775 9.99161C15.4948 9.93984 15.5238 9.89279 15.5624 9.8542L16.2494 9.16693C15.6168 9.2108 15.0016 9.54426 14.4448 10.101C14.0915 10.4543 13.9418 10.792 13.8986 11.1441C13.8536 11.5111 13.9204 11.9214 14.055 12.4257C14.0873 12.547 14.0526 12.6762 13.9639 12.7649L12.1817 14.5471C12.0444 14.6844 11.8218 14.6844 11.6845 14.5471C11.5472 14.4098 11.5472 14.1872 11.6845 14.05L13.3251 12.4094C13.2136 11.9517 13.1465 11.5004 13.2007 11.0584C13.2646 10.538 13.4928 10.0587 13.9476 9.60383ZM2.88989 9.55571C3.08406 9.55571 3.24146 9.71311 3.24146 9.90727V15.6631C3.24146 15.8572 3.08406 16.0146 2.88989 16.0146C2.69573 16.0146 2.53833 15.8572 2.53833 15.6631V9.90727C2.53833 9.71311 2.69573 9.55571 2.88989 9.55571Z" fill="black" fill-opacity="0.85"/>
<path id="Vector (Stroke)_2" fill-rule="evenodd" clip-rule="evenodd" d="M21.0436 9.50287C21.2378 9.50287 21.3952 9.66027 21.3952 9.85443V23.6484C21.3952 23.8426 21.2378 24 21.0436 24H2.88977C2.69561 24 2.53821 23.8426 2.53821 23.6484V17.1947C2.53821 17.0005 2.69561 16.8431 2.88977 16.8431C3.08394 16.8431 3.24134 17.0005 3.24134 17.1947V23.2969H20.6921V9.85443C20.6921 9.66027 20.8495 9.50287 21.0436 9.50287Z" fill="black" fill-opacity="0.85"/>
<path id="Vector (Stroke)_3" fill-rule="evenodd" clip-rule="evenodd" d="M6.06178 8.54999C6.17586 8.43593 6.35292 8.41413 6.49125 8.49713L9.06447 10.041C9.1573 10.0967 9.21929 10.1921 9.23252 10.2995C9.24575 10.407 9.20874 10.5145 9.13218 10.5911L8.92758 10.7957L10.0609 11.9291C10.1982 12.0664 10.1982 12.2889 10.0609 12.4262C9.92362 12.5635 9.70103 12.5635 9.56373 12.4262L8.43044 11.2929L7.77544 11.9479L12.0095 16.1821L12.6646 15.527L10.6475 13.51C10.5102 13.3727 10.5102 13.1501 10.6475 13.0128C10.7848 12.8755 11.0074 12.8755 11.1447 13.0128L13.1618 15.0298L13.492 14.6996C13.558 14.6336 13.6474 14.5966 13.7407 14.5966C13.834 14.5966 13.9234 14.6337 13.9893 14.6997L18.4919 19.2067C18.4919 19.2067 18.4919 19.2068 18.492 19.2068C19.1965 19.9114 19.1964 21.0537 18.4919 21.7583L18.2415 22.0087C17.5368 22.7133 16.3944 22.7133 15.6898 22.0087L15.6897 22.0086L13.6821 19.999C13.674 19.9922 13.6661 19.985 13.6585 19.9774C13.6508 19.9697 13.6435 19.9617 13.6367 19.9535L12.6587 18.9745C12.6485 18.9663 12.6386 18.9575 12.6291 18.9481C12.6196 18.9386 12.6107 18.9286 12.6025 18.9183L11.1871 17.5014C11.0499 17.3641 11.05 17.1416 11.1872 17.0044L11.5124 16.6792L7.2782 12.4451L7.07361 12.6496C6.99706 12.7262 6.88951 12.7632 6.78206 12.75C6.67461 12.7368 6.57925 12.6748 6.52355 12.5819L4.97962 10.0087C4.89662 9.87038 4.91842 9.69331 5.0325 9.57923L6.06178 8.54999ZM8.3166 10.4123L6.36487 9.24128L5.72378 9.88234L6.89482 11.8341L8.3166 10.4123ZM13.3764 18.6981L13.9083 19.2305L15.7159 17.4228L15.184 16.8904L13.3764 18.6981ZM14.6871 16.393L12.8794 18.2006L11.9329 17.2531L13.7405 15.4455L14.6871 16.393ZM16.2129 17.9203L14.4052 19.7279L16.187 21.5115C16.187 21.5116 16.1871 21.5116 16.1871 21.5117C16.6172 21.9416 17.3143 21.9415 17.7443 21.5115L17.9947 21.2611C18.4247 20.8311 18.4247 20.1339 17.9947 19.7039L16.2129 17.9203ZM0.702637 23.6484C0.702637 23.4543 0.860038 23.2969 1.0542 23.2969H2.88956C3.08372 23.2969 3.24112 23.4543 3.24112 23.6484C3.24112 23.8426 3.08372 24 2.88956 24H1.0542C0.860038 24 0.702637 23.8426 0.702637 23.6484ZM20.6922 23.6484C20.6922 23.4543 20.8496 23.2969 21.0438 23.2969H22.8885C23.0826 23.2969 23.24 23.4543 23.24 23.6484C23.24 23.8426 23.0826 24 22.8885 24H21.0438C20.8496 24 20.6922 23.8426 20.6922 23.6484Z" fill="black" fill-opacity="0.85"/>
<path id="Vector (Stroke)_4" fill-rule="evenodd" clip-rule="evenodd" d="M11.5657 0.853305C11.5656 0.853314 11.5656 0.853322 11.5656 0.853331L0.930922 9.21142L1.79955 10.3166L11.7827 2.47034C11.9102 2.37013 12.0897 2.37013 12.2172 2.47034L22.2004 10.3166L23.069 9.21142L17.7861 5.05942C17.6334 4.93945 17.6069 4.71843 17.7269 4.56577C17.8469 4.41311 18.0679 4.38662 18.2205 4.5066L23.7799 8.87584C23.8533 8.93346 23.9007 9.01784 23.9118 9.11042C23.9229 9.203 23.8967 9.29619 23.8391 9.3695L22.536 11.0275C22.416 11.1801 22.195 11.2066 22.0423 11.0866L12 3.1939L1.95764 11.0866C1.80498 11.2066 1.58397 11.1801 1.46399 11.0275L0.160853 9.3695C0.103234 9.2962 0.0770969 9.203 0.0881928 9.11042C0.0992886 9.01784 0.146708 8.93346 0.220019 8.87584L11.1312 0.300479L11.1312 0.300453C11.379 0.105788 11.6849 -3.05176e-05 12 -3.05176e-05C12.3151 -3.05176e-05 12.621 0.105788 12.8688 0.300453L12.8688 0.300477L17.0158 3.55972C17.1685 3.67969 17.195 3.90071 17.075 4.05337C16.955 4.20603 16.734 4.23252 16.5814 4.11254L12.4343 0.853331C12.4343 0.853323 12.4343 0.853315 12.4343 0.853307C12.3104 0.755996 12.1575 0.703099 12 0.703099C11.8425 0.703099 11.6895 0.755995 11.5657 0.853305Z" fill="black" fill-opacity="0.85"/>
</g>
</g>
<defs>
<clipPath id="clip0_1274_5820">
<rect width="24" height="24" fill="white"/>
</clipPath>
</defs>
</svg>
