<svg width="24" height="24" viewBox="0 0 24 24" fill="none" xmlns="http://www.w3.org/2000/svg">
<g id="Frame" clip-path="url(#clip0_1274_5753)">
<g id="Group">
<path id="Vector" d="M21.0368 7.84481H19.3068V4.44033C19.3068 3.85734 19.075 3.31397 18.6956 2.9167L17.5777 1.74698C16.629 0.769547 16.5093 0.493406 15.9443 0.219141C15.6818 0.088125 15.3359 0 14.9871 0H6.82188C5.60552 0 4.61631 0.989672 4.61631 2.20556V14.0995H4.15117C3.44946 14.0995 2.87875 14.6702 2.87875 15.372C2.87875 15.7212 3.02013 16.0374 3.24822 16.2674C3.02013 16.4973 2.87875 16.8135 2.87875 17.1628C2.87875 17.2938 2.89713 17.3715 2.90374 17.4144C0.142518 17.6953 -0.957451 21.113 1.06338 22.9679C1.67369 23.5282 2.48378 23.8459 3.36222 23.8101C3.65252 23.8101 9.62917 23.8077 9.63672 23.8077C10.338 23.8077 10.9091 23.237 10.9091 22.5353C10.9091 22.1861 10.7678 21.8699 10.5397 21.6399C10.7541 21.4236 10.8917 21.1319 10.9073 20.8076H11.3847V21.0626C11.3847 22.6823 12.7023 24 14.3221 24H21.0368C22.6566 24 23.9742 22.6823 23.9742 21.0626V10.7822C23.9743 9.16247 22.6566 7.84481 21.0368 7.84481ZM18.0353 3.31777C18.0353 3.31777 18.0358 3.31777 18.0363 3.3187H18.0367C18.0372 3.31964 18.0381 3.32058 18.0386 3.32105L18.0391 3.32152C18.04 3.32292 18.0409 3.32386 18.0419 3.32433C18.0423 3.3248 18.0428 3.32527 18.0433 3.3262C18.0438 3.32667 18.0442 3.32667 18.0442 3.32714C18.0447 3.32761 18.0452 3.32761 18.0456 3.32855C18.0466 3.32902 18.047 3.32995 18.0475 3.33042H16.1582V1.33322C16.7841 1.99451 17.4098 2.65602 18.0353 3.31777ZM4.15117 14.8536H9.63677C9.92238 14.8536 10.1552 15.0864 10.1552 15.372C10.1552 15.658 9.92233 15.8903 9.63677 15.8903H4.15117C3.86556 15.8903 3.63278 15.658 3.63278 15.372C3.63274 15.0863 3.86556 14.8536 4.15117 14.8536ZM4.15117 16.6444H9.63677C9.92238 16.6444 10.1552 16.8772 10.1552 17.1628C10.1552 17.4488 9.92233 17.6812 9.63677 17.6812H5.84772C5.69361 17.6106 5.53393 17.5529 5.3703 17.5087C5.12431 17.4416 4.87114 17.4044 4.61627 17.3979C4.54228 17.3959 4.46826 17.3966 4.39431 17.3998H3.69072C3.65248 17.3266 3.63258 17.2453 3.63274 17.1627C3.63274 16.8772 3.86556 16.6444 4.15117 16.6444ZM10.1552 18.9536C10.1552 19.2397 9.92233 19.472 9.63677 19.472H7.52688C7.38256 19.0883 7.16522 18.7362 6.88689 18.4352H9.63677C9.92233 18.4352 10.1552 18.668 10.1552 18.9536ZM2.31696 18.2769C2.08223 18.4998 1.88209 18.7565 1.72314 19.0385H1.28392C1.57094 18.6826 1.92771 18.4296 2.31696 18.2769ZM0.882861 19.7453H1.43191C1.41967 19.7981 1.35742 20.0012 1.32916 20.3104H0.749033C0.771335 20.1175 0.816253 19.9278 0.882861 19.7453ZM0.943658 21.614C0.859729 21.4233 0.800196 21.2229 0.766471 21.0173H1.34238C1.4456 21.6027 1.45122 21.5018 1.47714 21.614H0.943658ZM1.414 22.3208C1.64538 22.3204 1.77972 22.3218 1.81127 22.3199C1.95396 22.5448 2.12433 22.751 2.31836 22.9335C1.97669 22.7992 1.67275 22.5942 1.414 22.3208ZM4.63089 23.1037C3.2515 23.163 2.08366 22.0947 2.02521 20.712C1.93047 18.5107 4.55969 17.2429 6.21527 18.7628C7.84736 20.2609 6.85389 23.0122 4.63089 23.1037ZM9.63677 23.0537H6.59378C6.9321 22.7673 7.20785 22.4144 7.40388 22.0169H9.63677C9.92238 22.0169 10.1552 22.2497 10.1552 22.5353C10.1552 22.8213 9.92233 23.0537 9.63677 23.0537ZM10.1509 20.8076C10.1198 21.064 9.90114 21.2629 9.63677 21.2629H7.66403C7.73489 20.922 7.75033 20.5719 7.70974 20.2261H9.63677C9.95439 20.226 10.1914 20.5103 10.1509 20.8076ZM11.3847 20.0535H10.7042C10.6567 19.9798 10.6015 19.9112 10.5397 19.849C11.0321 19.3523 11.0326 18.5549 10.5397 18.0582C10.7678 17.8283 10.9091 17.512 10.9091 17.1628C10.9091 16.8136 10.7678 16.4974 10.5397 16.2674C11.3323 15.4681 10.7659 14.0996 9.63672 14.0996H5.3703V2.20556C5.3703 1.40536 6.02158 0.754031 6.82183 0.754031H15.4042V3.70748C15.4042 3.757 15.4139 3.80603 15.4328 3.85178C15.4518 3.89753 15.4795 3.9391 15.5146 3.97412C15.5496 4.00913 15.5911 4.0369 15.6369 4.05584C15.6826 4.07478 15.7317 4.08452 15.7812 4.0845H18.508C18.5867 4.38989 18.5381 4.28902 18.5527 7.84477H14.3221C12.7023 7.84477 11.3847 9.16242 11.3847 10.7822V20.0535ZM23.2674 21.0626C23.2674 22.2926 22.2669 23.2931 21.0368 23.2931H14.3222C13.0926 23.2931 12.0916 22.2926 12.0916 21.0626V10.7822C12.0916 9.55223 13.0926 8.55169 14.3222 8.55169H21.0369C22.2669 8.55169 23.2674 9.55219 23.2674 10.7822V21.0626H23.2674Z" fill="black" fill-opacity="0.85"/>
<path id="Vector_2" d="M21.0119 9.35334H14.3472C13.6918 9.35334 13.1605 9.88463 13.1605 10.54V11.8336C13.1605 12.489 13.6918 13.0203 14.3472 13.0203H15.6295C15.7232 13.0203 15.8131 12.983 15.8794 12.9168C15.9457 12.8505 15.9829 12.7606 15.9829 12.6668C15.9829 12.5731 15.9457 12.4832 15.8794 12.4169C15.8131 12.3506 15.7232 12.3134 15.6295 12.3134H14.3472C14.0833 12.3134 13.8674 12.0975 13.8674 11.8336V10.54C13.8674 10.2761 14.0833 10.0602 14.3472 10.0602H21.0119C21.2767 10.0602 21.4917 10.2756 21.4917 10.54V11.8336C21.4917 12.098 21.2767 12.3134 21.0119 12.3134H17.1536C17.0599 12.3134 16.97 12.3506 16.9037 12.4169C16.8374 12.4832 16.8002 12.5731 16.8002 12.6668C16.8002 12.7606 16.8374 12.8505 16.9037 12.9168C16.97 12.983 17.0599 13.0203 17.1536 13.0203H21.0119C21.6665 13.0203 22.1985 12.4877 22.1985 11.8336V10.54C22.1985 9.88589 21.6665 9.35334 21.0119 9.35334ZM15.1083 16.8013H13.9004C13.4927 16.8013 13.1605 17.1331 13.1605 17.5412V18.7486C13.1605 19.1567 13.4928 19.4885 13.9004 19.4885H15.1083C15.5164 19.4885 15.8482 19.1567 15.8482 18.7486V17.5412C15.8482 17.1331 15.5164 16.8013 15.1083 16.8013ZM15.1412 18.7486C15.1412 18.7573 15.1377 18.7657 15.1315 18.7719C15.1254 18.7781 15.117 18.7816 15.1082 18.7816H13.9004C13.8916 18.7816 13.8832 18.7781 13.8771 18.7719C13.8709 18.7657 13.8674 18.7573 13.8674 18.7486V17.5412C13.8674 17.5228 13.8825 17.5082 13.9004 17.5082H15.1082C15.1261 17.5082 15.1412 17.5228 15.1412 17.5412V18.7486ZM21.4968 13.6438H20.2894C19.8813 13.6438 19.5495 13.9756 19.5495 14.3837V15.5911C19.5495 15.9992 19.8813 16.331 20.2894 16.331H21.4968C21.905 16.331 22.2367 15.9992 22.2367 15.5911V14.3837C22.2367 13.9756 21.9049 13.6438 21.4968 13.6438ZM21.5298 15.5911C21.5299 15.5954 21.529 15.5997 21.5274 15.6038C21.5257 15.6078 21.5233 15.6114 21.5202 15.6145C21.5171 15.6176 21.5135 15.62 21.5095 15.6216C21.5055 15.6233 21.5012 15.6241 21.4968 15.6241H20.2894C20.2807 15.6241 20.2723 15.6206 20.2661 15.6144C20.2599 15.6082 20.2564 15.5998 20.2564 15.5911C20.271 14.3964 20.2258 14.3507 20.2894 14.3507H21.4968C21.5012 14.3507 21.5055 14.3515 21.5095 14.3531C21.5135 14.3548 21.5171 14.3572 21.5202 14.3603C21.5233 14.3634 21.5257 14.367 21.5274 14.371C21.529 14.375 21.5299 14.3793 21.5298 14.3837V15.5911ZM15.1083 13.6438H13.9004C13.4927 13.6438 13.1605 13.9756 13.1605 14.3837V15.5911C13.1605 15.9992 13.4928 16.331 13.9004 16.331H15.1083C15.5164 16.331 15.8482 15.9992 15.8482 15.5911V14.3837C15.8482 13.9756 15.5164 13.6438 15.1083 13.6438ZM15.1412 15.5911C15.1412 15.5998 15.1377 15.6082 15.1315 15.6144C15.1254 15.6206 15.117 15.6241 15.1082 15.6241H13.9004C13.8916 15.6241 13.8832 15.6206 13.8771 15.6144C13.8709 15.6082 13.8674 15.5998 13.8674 15.5911V14.3837C13.8674 14.3653 13.8825 14.3507 13.9004 14.3507H15.1082C15.1261 14.3507 15.1412 14.3653 15.1412 14.3837V15.5911ZM15.662 20.0535C15.5263 19.9009 15.3284 19.8043 15.1083 19.8043H13.9004C13.7958 19.8042 13.6923 19.8264 13.597 19.8694C13.5016 19.9124 13.4164 19.9751 13.3471 20.0535C13.0903 20.3415 13.1775 20.6554 13.1605 20.8076V21.7515C13.1605 22.1597 13.4928 22.4914 13.9004 22.4914H15.1083C15.5164 22.4914 15.8482 22.1596 15.8482 21.7515V20.8076C15.8312 20.6587 15.9174 20.3415 15.662 20.0535ZM15.1083 21.7845C13.915 21.7699 13.8674 21.8152 13.8674 21.7515C13.8674 20.473 13.8532 20.5111 13.9004 20.5111H15.1083C15.1663 20.5111 15.1305 20.5917 15.1413 20.8076C15.1412 20.8076 15.1719 21.7845 15.1083 21.7845ZM21.3092 16.8013H20.477C19.9657 16.8013 19.5495 17.2175 19.5495 17.7288V21.4787C19.5495 22.0372 20.0038 22.4915 20.5618 22.4915H21.2244C21.7829 22.4915 22.2367 22.0372 22.2367 21.4787V17.7288C22.2367 17.2175 21.8211 16.8013 21.3092 16.8013ZM21.2244 21.7845H20.5618C20.3936 21.7845 20.2564 21.6474 20.2564 21.4787V17.7288C20.2565 17.6703 20.2797 17.6142 20.3211 17.5729C20.3624 17.5316 20.4185 17.5083 20.477 17.5082H21.3092C21.3677 17.5083 21.4238 17.5316 21.4651 17.5729C21.5065 17.6142 21.5297 17.6703 21.5298 17.7288V21.4787C21.5298 21.6474 21.3931 21.7845 21.2244 21.7845ZM9.12412 10.2669C8.69316 10.1086 8.38181 9.99422 8.38181 9.59494C8.38181 9.23105 8.6235 9.04655 9.10008 9.04655C9.606 9.04655 9.74222 9.26925 9.92044 9.26925C10.1144 9.26925 10.2217 9.06342 10.2217 8.92106C10.2217 8.62659 9.74137 8.48058 9.312 8.44205V8.17655C9.3119 8.08775 9.27658 8.00262 9.21379 7.93983C9.151 7.87704 9.06587 7.84172 8.97708 7.84163C8.88828 7.84172 8.80315 7.87704 8.74036 7.93983C8.67757 8.00262 8.64225 8.08775 8.64216 8.17655V8.48438C8.05505 8.62378 7.73245 9.0293 7.73245 9.63014C7.73245 10.4528 8.33808 10.6804 8.82483 10.8633C9.30136 11.0424 9.67781 11.1839 9.67781 11.7279C9.67781 12.1773 9.4283 12.4052 8.93606 12.4052C8.21569 12.4052 8.20894 11.9188 7.93416 11.9188C7.764 11.9188 7.62694 12.1093 7.62694 12.267C7.62694 12.5455 8.04173 12.9116 8.64216 13.0066V13.2632C8.64216 13.4479 8.79239 13.5981 8.97708 13.5981C9.16176 13.5981 9.312 13.4479 9.312 13.2632V12.9998C9.95784 12.8782 10.3272 12.404 10.3272 11.6927C10.3272 10.709 9.66014 10.4639 9.12412 10.2669ZM18.7965 20.0116C18.6589 19.8786 18.4751 19.8042 18.2837 19.8043H17.0758C16.8557 19.8043 16.6578 19.9009 16.5221 20.0535C16.2662 20.342 16.3529 20.6554 16.3359 20.8076V21.7515C16.3359 22.1597 16.6677 22.4914 17.0758 22.4914H18.2837C18.6914 22.4914 19.0231 22.1596 19.0231 21.7515V20.5437C19.0231 20.3349 18.9359 20.1459 18.7965 20.0116ZM18.2837 21.7845C17.0904 21.7699 17.0428 21.8152 17.0428 21.7515V20.5437C17.0428 20.5258 17.0579 20.5111 17.0758 20.5111H18.2837C18.3016 20.5111 18.3162 20.5258 18.3162 20.5437C18.3021 21.7398 18.3464 21.7845 18.2837 21.7845ZM18.2837 13.6438H17.0758C16.6677 13.6438 16.3359 13.9756 16.3359 14.3837V15.5911C16.3359 15.9992 16.6677 16.331 17.0758 16.331H18.2837C18.3789 16.331 18.4694 16.3131 18.5528 16.2801C18.828 16.1722 19.0231 15.904 19.0231 15.591V14.3836C19.0231 13.9741 18.6894 13.6438 18.2837 13.6438ZM18.2837 15.6241H17.0758C17.0671 15.6241 17.0587 15.6206 17.0525 15.6144C17.0463 15.6082 17.0428 15.5998 17.0428 15.5911V14.3837C17.0428 14.3201 17.0866 14.3648 18.2837 14.3507C18.3016 14.3507 18.3162 14.3653 18.3162 14.3837V15.5911C18.3163 15.5954 18.3154 15.5997 18.3138 15.6037C18.3122 15.6076 18.3098 15.6113 18.3068 15.6143C18.3038 15.6174 18.3002 15.6199 18.2962 15.6215C18.2922 15.6232 18.288 15.6241 18.2837 15.6241ZM18.5528 16.8522C18.4671 16.8184 18.3758 16.8011 18.2837 16.8013H17.0758C16.6677 16.8013 16.3359 17.1331 16.3359 17.5412V18.7486C16.3359 19.1567 16.6677 19.4885 17.0758 19.4885H18.2837C18.6914 19.4885 19.0231 19.1567 19.0231 18.7486V17.5412C19.0231 17.2283 18.828 16.9601 18.5528 16.8522ZM18.3162 18.7486C18.3163 18.7529 18.3154 18.7572 18.3138 18.7612C18.3122 18.7651 18.3098 18.7688 18.3068 18.7718C18.3038 18.7749 18.3002 18.7773 18.2962 18.779C18.2922 18.7807 18.288 18.7816 18.2837 18.7816H17.0758C17.0671 18.7816 17.0587 18.7781 17.0525 18.7719C17.0463 18.7657 17.0428 18.7573 17.0428 18.7486V17.5412C17.0428 17.5228 17.0579 17.5082 17.0758 17.5082H18.2837C18.3016 17.5082 18.3162 17.5228 18.3162 17.5412V18.7486ZM16.2435 4.83005H15.3557C15.262 4.83008 15.1721 4.86733 15.1058 4.93361C15.0395 4.99988 15.0023 5.08976 15.0022 5.18349C15.0022 5.22991 15.0113 5.27588 15.0291 5.31877C15.0469 5.36166 15.0729 5.40063 15.1057 5.43346C15.1385 5.46628 15.1775 5.49232 15.2204 5.51007C15.2633 5.52782 15.3093 5.53695 15.3557 5.53692H16.2435C16.29 5.53695 16.3359 5.52782 16.3788 5.51007C16.4217 5.49232 16.4607 5.46628 16.4935 5.43346C16.5263 5.40063 16.5524 5.36166 16.5701 5.31877C16.5879 5.27588 16.597 5.22991 16.597 5.18349C16.597 5.08976 16.5597 4.99987 16.4934 4.93359C16.4272 4.86732 16.3373 4.83007 16.2435 4.83005ZM13.9418 4.83005H7.67395C7.58023 4.83008 7.49035 4.86733 7.42408 4.93361C7.3578 4.99988 7.32055 5.08976 7.32051 5.18349C7.32049 5.22991 7.32961 5.27588 7.34737 5.31877C7.36512 5.36166 7.39115 5.40063 7.42398 5.43346C7.4568 5.46628 7.49578 5.49232 7.53867 5.51007C7.58156 5.52782 7.62753 5.53695 7.67395 5.53692H13.9419C13.9883 5.53695 14.0343 5.52782 14.0772 5.51007C14.1201 5.49232 14.159 5.46628 14.1919 5.43346C14.2247 5.40063 14.2507 5.36166 14.2685 5.31877C14.2862 5.27588 14.2954 5.22991 14.2953 5.18349C14.2953 5.08975 14.258 4.99987 14.1917 4.93359C14.1255 4.86732 14.0356 4.83007 13.9418 4.83005ZM8.79745 6.58463H7.67395C7.58023 6.58466 7.49035 6.62191 7.42408 6.68819C7.3578 6.75446 7.32055 6.84434 7.32051 6.93806C7.32055 7.03179 7.3578 7.12167 7.42408 7.18794C7.49035 7.25421 7.58023 7.29146 7.67395 7.2915H8.79745C8.89118 7.29146 8.98105 7.25421 9.04733 7.18794C9.1136 7.12167 9.15085 7.03179 9.15089 6.93806C9.15085 6.84434 9.1136 6.75446 9.04733 6.68819C8.98105 6.62191 8.89118 6.58466 8.79745 6.58463ZM16.2435 6.58463H10.2112C10.1175 6.58466 10.0276 6.62191 9.96137 6.68819C9.8951 6.75446 9.85785 6.84434 9.85781 6.93806C9.85785 7.03179 9.8951 7.12167 9.96137 7.18794C10.0276 7.25421 10.1175 7.29146 10.2112 7.2915H16.2435C16.3373 7.29146 16.4271 7.25421 16.4934 7.18794C16.5597 7.12167 16.5969 7.03179 16.597 6.93806C16.597 6.84433 16.5597 6.75445 16.4934 6.68817C16.4272 6.6219 16.3373 6.58465 16.2435 6.58463ZM4.32347 19.9293C4.32347 19.8405 4.35619 19.815 4.3868 19.798C4.48176 19.7455 4.69964 19.73 4.89923 19.8327C4.95225 19.8599 5.01234 19.8908 5.09053 19.8908C5.43914 19.8908 5.71486 19.243 4.88212 19.0998V19.0776C4.88212 18.8801 4.72144 18.7194 4.52395 18.7194C4.32647 18.7194 4.16578 18.8801 4.16578 19.0776V19.1455C3.81684 19.2721 3.61945 19.5599 3.61945 19.9505C3.61945 20.5533 4.05741 20.7179 4.37728 20.838C4.6823 20.9526 4.78776 21.0028 4.78776 21.2102C4.78776 21.3399 4.75284 21.46 4.4993 21.46C4.12983 21.46 4.17408 21.168 3.89756 21.168C3.70214 21.168 3.55603 21.3612 3.55603 21.534C3.55603 21.7789 3.81066 22.0113 4.16578 22.1055V22.1324C4.16578 22.3298 4.32647 22.4905 4.52395 22.4905C4.72144 22.4905 4.88212 22.3299 4.88212 22.1324V22.0962C5.26641 21.9727 5.49183 21.6418 5.49183 21.1891C5.49183 20.1151 4.32347 20.2764 4.32347 19.9293Z" fill="black" fill-opacity="0.85"/>
</g>
</g>
<defs>
<clipPath id="clip0_1274_5753">
<rect width="24" height="24" fill="white"/>
</clipPath>
</defs>
</svg>
