<svg width="24" height="24" viewBox="0 0 24 24" fill="none" xmlns="http://www.w3.org/2000/svg">
<g id="Frame" clip-path="url(#clip0_1274_5736)">
<g id="Group">
<path id="Vector" d="M23.9984 6.96649C23.9984 6.12395 23.313 5.4385 22.4705 5.4385H20.2604C20.0659 5.4385 19.9084 5.59606 19.9084 5.79052C19.9084 5.98497 20.0659 6.14253 20.2604 6.14253H22.4705C22.9248 6.14253 23.2944 6.51215 23.2944 6.96649V7.37708H18.9663C18.7719 7.37708 18.6143 7.53464 18.6143 7.7291C18.6143 7.92355 18.7719 8.08111 18.9663 8.08111H19.9294L10.1799 19.7295L7.71404 17.5779L14.1461 9.89311C14.1757 9.85767 14.1981 9.81672 14.212 9.77262C14.2258 9.72852 14.2308 9.68212 14.2268 9.63608C14.2227 9.59003 14.2095 9.54524 14.1881 9.50427C14.1667 9.4633 14.1375 9.42694 14.102 9.39728C14.0666 9.36761 14.0256 9.34521 13.9815 9.33136C13.9374 9.31752 13.891 9.31249 13.845 9.31658C13.7989 9.32067 13.7542 9.33379 13.7132 9.35519C13.6722 9.37659 13.6359 9.40585 13.6062 9.44131L6.95284 17.3905C6.89372 17.4611 6.86464 17.5521 6.87183 17.644C6.87903 17.7358 6.92193 17.8211 6.99133 17.8817L13.1963 23.2957H9.86487L5.59612 19.5711C5.56083 19.5404 5.51974 19.5169 5.47528 19.5022C5.43082 19.4875 5.38387 19.4818 5.33718 19.4855C5.29049 19.4891 5.245 19.5021 5.20337 19.5235C5.16174 19.545 5.12482 19.5746 5.09476 19.6105L2.01029 23.2957H1.52953C1.07524 23.2957 0.705621 22.9261 0.705621 22.4718V21.442L3.44009 18.1749C3.46976 18.1395 3.49216 18.0986 3.50601 18.0545C3.51986 18.0104 3.52488 17.964 3.52079 17.9179C3.5167 17.8719 3.50358 17.8271 3.48218 17.7861C3.46078 17.7451 3.43152 17.7088 3.39606 17.6791C3.36062 17.6494 3.31968 17.627 3.27558 17.6132C3.23147 17.5993 3.18507 17.5943 3.13903 17.5984C3.09298 17.6025 3.04819 17.6156 3.00722 17.637C2.96625 17.6584 2.92989 17.6877 2.90024 17.7231L0.705621 20.3452V10.1837L5.62095 14.4724L3.86687 16.5681C3.8372 16.6035 3.8148 16.6445 3.80095 16.6886C3.78711 16.7327 3.78208 16.7791 3.78617 16.8251C3.79026 16.8712 3.80338 16.916 3.82478 16.9569C3.84618 16.9979 3.87545 17.0343 3.9109 17.0639C3.97413 17.117 4.05408 17.1461 4.13666 17.146C4.18818 17.1461 4.23908 17.1348 4.28576 17.113C4.33244 17.0913 4.37376 17.0595 4.40677 17.0199L6.3822 14.6597C6.44132 14.5891 6.4704 14.4981 6.46321 14.4063C6.45601 14.3145 6.41311 14.2291 6.34371 14.1686L0.705668 9.24934V8.08111H2.69818L7.73887 12.4793C7.77416 12.51 7.81524 12.5335 7.85971 12.5482C7.90417 12.5629 7.95112 12.5686 7.99781 12.5649C8.0445 12.5613 8.08999 12.5483 8.13162 12.5269C8.17324 12.5054 8.21017 12.4759 8.24024 12.44L11.8885 8.08116H12.7808C12.9753 8.08116 13.1329 7.9236 13.1329 7.72914C13.1329 7.53469 12.9753 7.37713 12.7808 7.37713H0.705668V6.96654C0.705668 6.5122 1.07529 6.14258 1.52958 6.14258H11.4874C11.6819 6.14258 11.8394 5.98502 11.8394 5.79056C11.8394 5.59611 11.6819 5.43855 11.4874 5.43855H1.52953C0.687034 5.43855 0.00158691 6.12399 0.00158691 6.96654V22.4719C0.00158691 23.3143 0.687034 23.9998 1.52953 23.9998H22.4705C22.8759 23.9998 23.2447 23.8408 23.5185 23.5822C23.5264 23.5754 23.5338 23.5682 23.5411 23.5607C23.8231 23.2833 23.9984 22.8977 23.9984 22.4719V6.96649ZM7.93093 11.7125L3.76901 8.08111H10.9704L7.93093 11.7125ZM23.2944 19.0126L18.7737 15.0682L23.2944 9.66688V19.0126ZM5.40406 20.3378L8.79403 23.2957H2.9284L5.40406 20.3378ZM14.2672 23.2957L12.8918 22.0956L14.1577 20.5832C14.1874 20.5478 14.2098 20.5068 14.2236 20.4627C14.2375 20.4186 14.2425 20.3722 14.2384 20.3262C14.2343 20.2801 14.2212 20.2353 14.1998 20.1944C14.1784 20.1534 14.1491 20.117 14.1137 20.0874C14.0782 20.0577 14.0373 20.0353 13.9932 20.0214C13.9491 20.0076 13.9027 20.0026 13.8566 20.0067C13.8106 20.0107 13.7658 20.0239 13.7248 20.0453C13.6839 20.0667 13.6475 20.0959 13.6178 20.1314L12.3613 21.6327L10.7106 20.1924L20.8474 8.08111H23.2944V8.57004L18.0125 14.8808C17.9533 14.9514 17.9243 15.0424 17.9315 15.1342C17.9387 15.226 17.9816 15.3114 18.051 15.3719L23.2944 19.947V22.4718C23.2944 22.5867 23.2706 22.6962 23.2279 22.7957L16.6558 17.0613C16.6205 17.0305 16.5795 17.007 16.535 16.9923C16.4905 16.9776 16.4435 16.9719 16.3968 16.9757C16.3502 16.9793 16.3047 16.9923 16.263 17.0137C16.2214 17.0352 16.1845 17.0648 16.1544 17.1007L14.5845 18.9765C14.5548 19.0119 14.5324 19.0528 14.5186 19.097C14.5047 19.1411 14.4997 19.1875 14.5038 19.2335C14.5079 19.2795 14.521 19.3243 14.5424 19.3653C14.5638 19.4063 14.593 19.4426 14.6285 19.4723C14.6639 19.502 14.7049 19.5244 14.749 19.5382C14.7931 19.5521 14.8395 19.5571 14.8855 19.553C14.9316 19.5489 14.9764 19.5358 15.0173 19.5144C15.0583 19.493 15.0947 19.4637 15.1243 19.4283L16.4637 17.828L22.6939 23.2641C22.6212 23.2848 22.5461 23.2955 22.4705 23.2957H14.2672Z" fill="black" fill-opacity="0.85"/>
<path id="Vector_2" d="M14.3828 2.48125C14.0726 2.83955 13.9019 3.29763 13.902 3.77156C13.902 4.85863 14.7864 5.74309 15.8735 5.74309C16.1562 5.74313 16.4357 5.68232 16.6929 5.56478C16.9501 5.44723 17.179 5.27571 17.364 5.06186C17.6743 4.70363 17.8451 4.24552 17.845 3.77156C17.845 2.68434 16.9605 1.79984 15.8735 1.79984C15.5907 1.79981 15.3112 1.86066 15.0539 1.97823C14.7967 2.09581 14.5679 2.26737 14.3828 2.48125ZM17.141 3.77156C17.141 4.07645 17.0312 4.37092 16.8319 4.60086C16.7129 4.73841 16.5658 4.84873 16.4004 4.92434C16.235 4.99995 16.0553 5.03908 15.8735 5.03905C15.1746 5.03905 14.606 4.47047 14.606 3.77156C14.6059 3.46692 14.7156 3.17247 14.915 2.94216L14.9151 2.94206C15.034 2.80453 15.1812 2.6942 15.3465 2.61859C15.5119 2.54298 15.6916 2.50386 15.8735 2.50387C16.5723 2.50392 17.141 3.07259 17.141 3.77156Z" fill="black" fill-opacity="0.85"/>
<path id="Vector_3" d="M14.3885 8.1475C14.6139 8.45751 14.7719 8.81126 14.8524 9.186L14.9681 9.72139C15.0596 10.1448 15.4404 10.452 15.8735 10.452C16.3066 10.452 16.6874 10.1447 16.7789 9.72139L16.8946 9.186C16.975 8.81124 17.1331 8.45748 17.3585 8.1475L17.8703 7.44178C17.8974 7.40436 17.9169 7.36195 17.9277 7.31699C17.9384 7.27203 17.9402 7.22539 17.933 7.17974C17.9257 7.13409 17.9095 7.09031 17.8853 7.05091C17.8611 7.01152 17.8294 6.97727 17.792 6.95013C17.7546 6.92299 17.7122 6.90348 17.6672 6.89273C17.6223 6.88197 17.5756 6.88018 17.53 6.88745C17.4843 6.89472 17.4405 6.91091 17.4011 6.9351C17.3617 6.95928 17.3275 6.99099 17.3004 7.02842L16.7886 7.73414C16.5057 8.12312 16.3073 8.56704 16.2064 9.03731L16.0907 9.5727C16.0688 9.67427 15.9774 9.74796 15.8735 9.74796C15.7696 9.74796 15.6783 9.67427 15.6563 9.5727L15.5406 9.03726C15.4395 8.56704 15.2412 8.12316 14.9584 7.73414L13.4101 5.59932C13.0149 5.06773 12.8061 4.43569 12.8061 3.77151C12.8061 2.9385 13.1344 2.15908 13.7304 1.57694C14.3262 0.994987 15.1147 0.685541 15.9477 0.704972C16.7386 0.723559 17.4844 1.04652 18.0477 1.61435C18.6109 2.18213 18.928 2.93052 18.9405 3.72171C18.9513 4.4042 18.7425 5.05351 18.3343 5.60261L18.1922 5.79861C18.1651 5.83602 18.1456 5.87842 18.1348 5.92338C18.124 5.96834 18.1222 6.01498 18.1295 6.06063C18.1367 6.10629 18.1529 6.15007 18.1771 6.18947C18.2013 6.22887 18.233 6.26312 18.2704 6.29026C18.3078 6.31742 18.3502 6.33694 18.3952 6.34771C18.4401 6.35848 18.4868 6.36029 18.5324 6.35303C18.5781 6.34577 18.6219 6.32958 18.6613 6.30539C18.7007 6.28121 18.7349 6.24949 18.7621 6.21207L18.9019 6.0194C19.401 5.34793 19.6577 4.54961 19.6445 3.71059C19.6291 2.73667 19.2395 1.81613 18.5475 1.11852C17.8555 0.420918 16.9381 0.0240773 15.9643 0.00112581C14.9399 -0.0232807 13.9711 0.357742 13.2385 1.07332C12.5057 1.78909 12.1021 2.74733 12.1021 3.77151C12.1021 4.58809 12.359 5.36544 12.8427 6.01602L14.3885 8.1475Z" fill="black" fill-opacity="0.85"/>
</g>
</g>
<defs>
<clipPath id="clip0_1274_5736">
<rect width="24" height="24" fill="white"/>
</clipPath>
</defs>
</svg>
