<svg width="20" height="20" viewBox="0 0 20 20" fill="none" xmlns="http://www.w3.org/2000/svg">
<g id="fluent-mdl2:compare-uneven">
<path id="Vector" d="M17.7441 11.25H18.75V12.5H18.5352C18.4049 12.8711 18.2227 13.2096 17.9883 13.5156C17.7539 13.8216 17.4772 14.0853 17.1582 14.3066C16.8392 14.528 16.5007 14.6973 16.1426 14.8145C15.7845 14.9316 15.4036 14.9935 15 15C14.6094 15 14.2285 14.9414 13.8574 14.8242C13.4863 14.707 13.1445 14.5378 12.832 14.3164C12.5195 14.0951 12.2461 13.8314 12.0117 13.5254C11.7773 13.2194 11.5951 12.8776 11.4648 12.5H11.25V11.25H12.2559L14.082 5.78125L10 4.42383V16.2695C11.1003 16.3411 12.1322 16.5853 13.0957 17.002C14.0592 17.4186 14.9447 18.0013 15.752 18.75H17.5V20H1.25V18.75H2.99805C3.79883 18.0078 4.68424 17.4284 5.6543 17.0117C6.62435 16.5951 7.65625 16.3477 8.75 16.2695V4.00391L4.90234 2.72461L6.49414 7.5H7.5V8.75H7.28516C7.15495 9.12109 6.97266 9.45964 6.73828 9.76562C6.50391 10.0716 6.22721 10.3353 5.9082 10.5566C5.58919 10.778 5.25065 10.9473 4.89258 11.0645C4.53451 11.1816 4.15365 11.2435 3.75 11.25C3.35938 11.25 2.97852 11.1914 2.60742 11.0742C2.23633 10.957 1.89453 10.7878 1.58203 10.5664C1.26953 10.3451 0.996094 10.0814 0.761719 9.77539C0.527344 9.4694 0.345052 9.1276 0.214844 8.75H0V7.5H1.00586L2.83203 2.03125L0.273438 1.18164L0.673828 0L8.75 2.68555V0H10V3.10547L18.4668 5.91797L18.0664 7.10938L16.1426 6.46484L17.7441 11.25ZM5.91797 8.75H1.58203C1.8099 9.14062 2.11589 9.44661 2.5 9.66797C2.88411 9.88932 3.30078 10 3.75 10C4.19922 10 4.61589 9.88932 5 9.66797C5.38411 9.44661 5.6901 9.14062 5.91797 8.75ZM5.17578 7.5L3.75 3.22266L2.32422 7.5H5.17578ZM9.375 17.5C8.60677 17.5 7.85482 17.6042 7.11914 17.8125C6.38346 18.0208 5.6901 18.3333 5.03906 18.75H13.7109C13.0664 18.3398 12.373 18.0306 11.6309 17.8223C10.8887 17.6139 10.1367 17.5065 9.375 17.5ZM15 6.97266L13.5742 11.25H16.4258L15 6.97266ZM17.168 12.5H12.832C13.0599 12.8906 13.3659 13.1966 13.75 13.418C14.1341 13.6393 14.5508 13.75 15 13.75C15.4492 13.75 15.8659 13.6393 16.25 13.418C16.6341 13.1966 16.9401 12.8906 17.168 12.5Z" fill="black" fill-opacity="0.85"/>
</g>
</svg>
