<svg width="20" height="20" viewBox="0 0 20 20" fill="none" xmlns="http://www.w3.org/2000/svg">
<g id="Frame" clip-path="url(#clip0_1327_4050)">
<g id="Group">
<path id="Vector" d="M19.5389 5.14239H17.4723V2.26731C17.4723 2.23783 17.468 2.20851 17.4593 2.18032H18.746C19.3472 2.18032 19.8362 1.69125 19.8362 1.09008C19.8362 0.489065 19.3471 2.8336e-06 18.7459 2.8336e-06H14.9945C14.7639 -0.000524884 14.5391 0.0726702 14.3529 0.208909L3.04755 8.43993C3.01597 8.4629 2.98924 8.49187 2.96886 8.52518C2.94849 8.55849 2.93489 8.59549 2.92882 8.63407C2.92275 8.67264 2.92435 8.71203 2.93352 8.74999C2.94268 8.78794 2.95924 8.82372 2.98223 8.85528C3.00521 8.88685 3.03418 8.91359 3.06749 8.93396C3.1008 8.95433 3.1378 8.96794 3.17638 8.974C3.21495 8.98007 3.25434 8.97847 3.2923 8.96931C3.33025 8.96014 3.36603 8.94359 3.39759 8.92059L14.703 0.689534C14.7876 0.627665 14.8897 0.594411 14.9945 0.594612H18.7461C19.0192 0.594612 19.2415 0.8168 19.2415 1.09008C19.2415 1.36336 19.0192 1.58555 18.7461 1.58555H15.2526C15.1897 1.58555 15.1284 1.60555 15.0776 1.64258L1.38138 11.6144C1.29696 11.6762 1.19502 11.7095 1.0904 11.7093C0.929735 11.7093 0.783563 11.635 0.689227 11.5055C0.528407 11.2845 0.577235 10.974 0.798055 10.8132L2.30134 9.71883C2.33291 9.69586 2.35964 9.66688 2.38001 9.63357C2.40038 9.60026 2.41398 9.56326 2.42005 9.52469C2.42611 9.48612 2.42452 9.44673 2.41536 9.40877C2.40619 9.37082 2.38964 9.33504 2.36665 9.30348C2.34368 9.27191 2.3147 9.24517 2.28139 9.2248C2.24808 9.20443 2.21108 9.19082 2.17251 9.18475C2.13393 9.17869 2.09454 9.18028 2.05659 9.18945C2.01863 9.19861 1.98285 9.21517 1.9513 9.23817L0.448094 10.3325C-0.0378431 10.6863 -0.145382 11.3695 0.208485 11.8555C0.412938 12.1363 0.742704 12.3039 1.09044 12.3039C1.3209 12.3043 1.54548 12.2312 1.73145 12.095L2.19763 11.7557V15.0682H0.983485C0.535946 15.0682 0.171844 15.4323 0.171844 15.8798C0.171844 16.3273 0.535907 16.6914 0.983485 16.6914H1.06403V19.7028C1.06403 19.867 1.19723 20 1.36145 20H19.5389C19.578 20 19.6166 19.9923 19.6527 19.9774C19.6887 19.9625 19.7215 19.9406 19.7491 19.9129C19.7767 19.8853 19.7986 19.8526 19.8136 19.8165C19.8285 19.7804 19.8362 19.7418 19.8362 19.7027V13.1572C19.8366 13.1179 19.8293 13.0789 19.8145 13.0424C19.7998 13.0059 19.778 12.9727 19.7503 12.9448C19.7227 12.9168 19.6897 12.8946 19.6534 12.8794C19.6171 12.8643 19.5782 12.8565 19.5389 12.8565C19.4995 12.8565 19.4606 12.8643 19.4243 12.8794C19.388 12.8946 19.3551 12.9168 19.3274 12.9448C19.2997 12.9727 19.2779 13.0059 19.2632 13.0424C19.2484 13.0789 19.2411 13.1179 19.2415 13.1572V19.4054H1.65868V16.6915H5.90583C5.94486 16.6915 5.98352 16.6838 6.01958 16.6689C6.05565 16.6539 6.08841 16.632 6.11601 16.6044C6.14361 16.5768 6.16551 16.544 6.18044 16.508C6.19538 16.4719 6.20306 16.4333 6.20306 16.3942V13.3829H10.4502C10.6144 13.3829 10.7474 13.2497 10.7474 13.0855V10.0742H14.9945C15.0336 10.0742 15.0722 10.0665 15.1083 10.0516C15.1444 10.0366 15.1771 10.0147 15.2047 9.98714C15.2323 9.95954 15.2542 9.92677 15.2692 9.89071C15.2841 9.85465 15.2918 9.81599 15.2918 9.77696V6.76563H19.2415V11.968C19.2424 12.0462 19.2741 12.121 19.3298 12.176C19.3855 12.231 19.4606 12.2619 19.5389 12.2619C19.6171 12.2619 19.6922 12.231 19.7479 12.176C19.8036 12.121 19.8353 12.0462 19.8362 11.968V5.43961C19.8362 5.40057 19.8285 5.36192 19.8136 5.32585C19.7986 5.28978 19.7767 5.25701 19.7491 5.2294C19.7215 5.2018 19.6887 5.1799 19.6527 5.16496C19.6166 5.15003 19.578 5.14234 19.5389 5.14235V5.14239ZM5.60845 16.0968H0.983446C0.863836 16.0968 0.766493 15.9995 0.766493 15.8798C0.766493 15.7602 0.863837 15.6629 0.983485 15.6629H5.60841L5.60845 16.0968ZM5.60845 15.0682H2.79223V11.3227L7.09095 8.19297V11.7597H5.52786C5.08032 11.7597 4.71622 12.1238 4.71622 12.5711C4.71622 13.0187 5.08028 13.3828 5.52786 13.3828H5.60841L5.60845 15.0682ZM10.1528 12.7881H5.52786C5.40821 12.7881 5.31087 12.6909 5.31087 12.5713C5.31087 12.4517 5.40821 12.3543 5.52786 12.3543H10.1528V12.7881ZM10.1528 11.7597H7.68559V7.76004L11.9841 4.63028V8.45094H10.0722C9.6247 8.45094 9.2606 8.815 9.2606 9.26254C9.2606 9.71008 9.62466 10.0741 10.0722 10.0741H10.1528V11.7597ZM14.6972 9.47954H10.0722C9.95259 9.47954 9.85524 9.38219 9.85524 9.26254C9.85524 9.14289 9.95259 9.04555 10.0722 9.04555H14.6972V9.47954ZM14.6972 8.4511H12.5788V4.19739L15.3493 2.18032H16.8906C16.882 2.20851 16.8776 2.23783 16.8776 2.26731V5.14239H14.6166C14.1691 5.14239 13.805 5.50645 13.805 5.95399C13.805 6.40153 14.169 6.76559 14.6166 6.76559H14.6972V8.4511ZM14.6166 6.17098C14.497 6.17098 14.3996 6.0736 14.3996 5.95399C14.3996 5.83438 14.497 5.737 14.6166 5.737H19.2415V6.17098H14.6166Z" fill="black" fill-opacity="0.65"/>
</g>
</g>
<defs>
<clipPath id="clip0_1327_4050">
<rect width="20" height="20" fill="white"/>
</clipPath>
</defs>
</svg>
