<svg width="238" height="38" viewBox="0 0 238 38" fill="none" xmlns="http://www.w3.org/2000/svg">
<g clip-path="url(#clip0_767_12021)">
<path fill-rule="evenodd" clip-rule="evenodd" d="M16.8783 16.245H22.1667L16.8783 10.2125L11.5425 16.2292L16.8783 16.245ZM16.8783 19.1742H24.9217C24.9217 19.1742 23.3383 17.29 23.3383 17.4008H10.4183C10.4183 17.29 8.835 19.1742 8.835 19.1742H16.8783ZM16.8783 9.5C22.2617 9.5 33.7567 11.9383 33.7567 19.285C33.7567 25.1908 25.745 27.7717 25.2542 27.7875C25.1592 27.7875 25.1592 24.6208 25.0642 23.0375C24.9692 21.4542 24.2092 21.2483 23.3542 21.2483C22.9451 21.2809 22.561 21.4582 22.2709 21.7484C21.9807 22.0385 21.8034 22.4226 21.7708 22.8317C21.7708 23.5442 21.7708 28.7692 21.7708 28.7692L18.81 29.1967V23.1642C18.81 21.4383 17.7333 21.3275 16.9733 21.3117C16.2133 21.2958 15.0417 21.4383 15.0417 23.1642C15.0417 25.4125 15.0417 29.1808 15.0417 29.1808L12.0808 28.7533C12.0808 28.7533 12.0808 23.5283 12.0808 22.8158C12.0482 22.4068 11.871 22.0227 11.5808 21.7325C11.2906 21.4424 10.9066 21.2651 10.4975 21.2325C9.6425 21.2325 8.91417 21.5175 8.7875 23.0217C8.66083 24.5258 8.6925 27.6925 8.5975 27.7717C8.01166 27.7717 0 25.1908 0 19.285C0 11.9383 11.495 9.5 16.8783 9.5ZM17.575 10.1333C21.5592 10.1438 25.4383 11.4128 28.6583 13.7592C29.881 14.706 30.8719 15.9189 31.5558 17.3058C31.8632 18.2076 31.9783 19.1638 31.8938 20.1128C31.8092 21.0618 31.5269 21.9826 31.065 22.8158C30.2575 24.0667 28.1517 25.9825 27.5183 25.9825V21.9608C27.8001 22.3818 28.2251 22.686 28.7144 22.8171C29.2037 22.9482 29.7239 22.8971 30.1783 22.6733C31.0017 22.135 31.1917 20.5992 29.64 19.6333V19.4592H30.7167V19.2692C28.6583 18.0183 25.3175 15.6275 23.7025 14.5192C22.42 13.5533 19.3325 11.5583 17.575 10.1333ZM16.1817 10.1333C12.1964 10.1373 8.31539 11.407 5.09833 13.7592C3.8668 14.6987 2.86514 15.9061 2.16917 17.29C1.85484 18.1906 1.73604 19.1478 1.82068 20.0979C1.90531 21.048 2.19144 21.9692 2.66 22.8C3.515 24.0667 5.58917 25.9667 6.2225 25.9667V21.9608C5.94074 22.3818 5.51571 22.686 5.02643 22.8171C4.53716 22.9482 4.01693 22.8971 3.5625 22.6733C2.72333 22.1667 2.54917 20.5833 4.085 19.6333V19.4592H3.02417V19.2692C5.0825 18.0183 8.4075 15.6275 10.0383 14.5192C11.3367 13.5533 14.4242 11.5583 16.1817 10.1175V10.1333Z" fill="#001336"/>
<path fill-rule="evenodd" clip-rule="evenodd" d="M57.3957 24.3042V14.3766H60.4199V18.0816H62.0032L66.0882 14.3766H70.2366L64.5524 19.285L70.8066 24.3042H66.4999L61.9399 20.4883H60.3566V24.3042H57.3957ZM46.4391 20.4567H50.6666L48.4974 16.4983L46.4391 20.4567ZM40.9766 24.3042L46.5657 14.3766H50.6666L56.0816 24.3042H52.7249L51.7432 22.5308H45.3307L44.3332 24.3042H40.9766Z" fill="#001336"/>
<path fill-rule="evenodd" clip-rule="evenodd" d="M88.0012 14.3767H98.9896V16.625H90.9779V18.335H98.5304V20.2983H90.9779V22.0558H99.0846V24.3042H88.0012V14.3767ZM82.1587 20.5833H85.0721V21.0267C85.1109 21.717 85.003 22.4077 84.7554 23.0533C84.5897 23.345 84.362 23.5968 84.0884 23.791C83.8149 23.9853 83.5021 24.1172 83.1721 24.1775C82.5924 24.2867 82.0044 24.345 81.4146 24.3517C80.8762 24.3517 79.8312 24.3517 78.2479 24.3517C77.2594 24.3635 76.271 24.3212 75.2871 24.225C74.755 24.2223 74.2362 24.0591 73.7984 23.7569C73.3605 23.4546 73.0241 23.0273 72.8329 22.5308C72.5552 21.4131 72.4379 20.2616 72.4846 19.1108C72.4513 18.2394 72.5257 17.3673 72.7062 16.5142C72.8202 16.0955 73.0359 15.7116 73.3343 15.3967C73.6327 15.0817 74.0044 14.8455 74.4162 14.7092C75.7324 14.3594 77.0927 14.2047 78.4537 14.25C80.0421 14.1793 81.6335 14.2695 83.2037 14.5192C83.5092 14.5905 83.7952 14.7282 84.0415 14.9225C84.2878 15.1168 84.4883 15.3629 84.6287 15.6433C84.8724 16.2124 84.9807 16.8303 84.9454 17.4483V17.7967H82.0637C82.0559 17.5565 82.0021 17.32 81.9054 17.1C81.7629 16.8467 81.3196 16.6883 80.6071 16.6408H79.1662C78.3118 16.5975 77.4557 16.5975 76.6012 16.6408C76.2756 16.6948 75.9811 16.8666 75.7739 17.1235C75.5666 17.3804 75.461 17.7045 75.4771 18.0342C75.4771 18.3033 75.4771 18.7308 75.4771 19.3167C75.3861 20.0293 75.5307 20.7521 75.8887 21.375C76.2583 21.6647 76.7177 21.816 77.1871 21.8025C77.4087 21.8025 77.8837 21.8025 78.5962 21.8025C79.603 21.8607 80.6131 21.7969 81.6046 21.6125C81.9529 21.5967 82.1429 21.2008 82.1587 20.5833Z" fill="#001336"/>
<path fill-rule="evenodd" clip-rule="evenodd" d="M116.834 24.3042V14.3767H121.584L127.6 21.9292L127.521 14.3767H130.387V24.3042H125.589L119.652 16.8309L119.731 24.3042H116.834ZM104.879 19.38H109.629C110.035 19.3985 110.44 19.3558 110.833 19.2534C111.01 19.1603 111.154 19.0142 111.245 18.8355C111.336 18.6567 111.369 18.4542 111.339 18.2559C111.339 17.6225 111.229 17.2267 110.991 17.0367C110.592 16.848 110.148 16.7714 109.709 16.815H104.879V19.38ZM101.871 24.3042V14.3767H110.437C111.148 14.354 111.86 14.4124 112.559 14.5509C112.91 14.6118 113.24 14.7616 113.517 14.9861C113.794 15.2106 114.009 15.5023 114.142 15.8334C114.34 16.4085 114.431 17.0148 114.411 17.6225C114.471 18.058 114.424 18.5015 114.275 18.9151C114.126 19.3287 113.88 19.7001 113.556 19.9976C112.956 20.3289 112.292 20.5286 111.609 20.5834H112.099C112.588 20.5697 113.074 20.6615 113.524 20.8525C113.794 21.0836 114 21.3789 114.125 21.7111C114.249 22.0432 114.288 22.4015 114.237 22.7525V24.3359H111.181V23.0692C111.181 22.325 110.912 21.9134 110.389 21.8342H109.519H104.879V24.3042H101.871Z" fill="#001336"/>
<path fill-rule="evenodd" clip-rule="evenodd" d="M201.953 24.3041V14.3766H204.962V24.3041H201.953ZM188.78 21.9291H193.847C194.262 21.9476 194.677 21.9103 195.082 21.8183C195.305 21.7445 195.503 21.6084 195.651 21.4261C195.8 21.2438 195.894 21.0228 195.921 20.7891C195.986 20.3171 196.013 19.8405 196 19.3641C196.059 18.7038 195.95 18.0395 195.683 17.4325C195.398 17.0366 194.813 16.8466 193.894 16.8466H188.78V21.9291ZM185.756 24.3041V14.3766H194.338C195.08 14.3644 195.821 14.4173 196.554 14.535C196.964 14.5844 197.356 14.7291 197.7 14.9572C198.043 15.1854 198.329 15.4909 198.533 15.8491C198.953 16.9598 199.126 18.1483 199.04 19.3325C199.079 20.0603 199.079 20.7897 199.04 21.5175C199.013 22.1806 198.754 22.8133 198.309 23.3052C197.863 23.7971 197.259 24.117 196.602 24.2091C196.009 24.2872 195.411 24.319 194.813 24.3041H185.756ZM173.786 24.3041V14.3766H176.81V21.85H183.666V24.3041H173.786ZM164.112 16.72C163.119 16.6557 162.123 16.7303 161.151 16.9416C160.958 17.0397 160.794 17.186 160.675 17.3664C160.555 17.5468 160.485 17.755 160.47 17.9708C160.435 18.4029 160.435 18.8371 160.47 19.2691C160.443 19.8699 160.496 20.4716 160.628 21.0583C160.771 21.5808 161.246 21.8658 162.053 21.9291C162.528 21.9291 163.098 21.9291 163.763 21.9291C164.86 21.9823 165.958 21.9187 167.041 21.7391C167.27 21.6557 167.471 21.5086 167.62 21.3151C167.768 21.1216 167.859 20.8897 167.88 20.6466C167.918 20.1513 167.918 19.6537 167.88 19.1583C167.905 18.7628 167.905 18.3662 167.88 17.9708C167.874 17.7425 167.808 17.5198 167.688 17.3252C167.569 17.1306 167.4 16.971 167.199 16.8625C166.741 16.7315 166.267 16.6675 165.79 16.6725L164.112 16.72ZM163.684 14.25C165.227 14.211 166.77 14.2586 168.308 14.3925C168.851 14.4435 169.366 14.6564 169.786 15.0036C170.207 15.3509 170.514 15.8164 170.667 16.34C170.791 16.859 170.86 17.3897 170.873 17.9233C170.873 18.3033 170.873 18.7783 170.873 19.3483C170.914 20.2933 170.84 21.2398 170.651 22.1666C170.468 22.8124 170.07 23.3763 169.523 23.765C168.976 24.1537 168.313 24.3439 167.643 24.3041C166.914 24.3041 165.711 24.3833 164.048 24.3833H161.499C160.629 24.3848 159.765 24.2293 158.95 23.9241C158.562 23.7183 158.23 23.42 157.984 23.0554C157.738 22.6909 157.586 22.2714 157.541 21.8341C157.444 20.9987 157.407 20.1574 157.43 19.3166C157.43 18.4933 157.43 17.955 157.43 17.7333C157.451 17.1934 157.552 16.6597 157.731 16.15C157.982 15.6059 158.388 15.1478 158.897 14.8325C159.407 14.5172 159.998 14.3587 160.597 14.3766C161.246 14.3291 162.307 14.25 163.684 14.25ZM141.518 24.2566V14.3766H144.542V18.05H151.413V14.3766H154.422V24.3041H151.413V20.5833H144.542V24.3833L141.518 24.2566Z" fill="#001336"/>
<path fill-rule="evenodd" clip-rule="evenodd" d="M208.082 24.3042V14.3767H212.88L218.896 21.9292L218.817 14.3767H221.667V24.3042H216.822L210.9 16.8309L210.98 24.3042H208.082Z" fill="#001336"/>
<path fill-rule="evenodd" clip-rule="evenodd" d="M237.499 17.7175H234.538C234.538 17.005 234.111 16.6409 233.319 16.625H229.345C228.94 16.592 228.534 16.6744 228.173 16.8625C228.017 16.9918 227.89 17.1537 227.803 17.3369C227.715 17.5201 227.669 17.7203 227.667 17.9234C227.667 18.2717 227.667 18.7995 227.667 19.5067C227.618 20.1184 227.699 20.7334 227.904 21.3117C228.126 21.755 228.712 21.9925 229.614 22.0242H231.958C232.781 22.0242 233.288 22.0242 233.541 22.0242C233.86 22.0129 234.166 21.896 234.412 21.6917C234.511 21.5743 234.586 21.4382 234.633 21.2914C234.679 21.1445 234.695 20.99 234.681 20.8367V20.5834H230.849V18.6992H237.499V20.0767C237.525 20.8769 237.472 21.6777 237.341 22.4675C237.087 23.6867 236.169 24.3042 234.57 24.3517H230.786C229.377 24.3517 228.348 24.3517 227.73 24.3517C227.115 24.3915 226.503 24.2351 225.982 23.9051C225.462 23.575 225.059 23.0884 224.833 22.515C224.581 21.5225 224.479 20.4977 224.532 19.475C224.473 18.3439 224.596 17.2107 224.896 16.1184C225.039 15.7208 225.281 15.3664 225.6 15.0892C225.919 14.812 226.303 14.6212 226.717 14.535C228.223 14.2832 229.751 14.1877 231.277 14.25C233.05 14.25 234.253 14.25 234.871 14.25C236.264 14.3767 237.103 14.9625 237.357 15.9917C237.467 16.5119 237.515 17.0435 237.499 17.575" fill="#001336"/>
</g>
<defs>
<clipPath id="clip0_767_12021">
<rect width="237.5" height="38" fill="white"/>
</clipPath>
</defs>
</svg>
